<svg xmlns="http://www.w3.org/2000/svg" xmlns:xlink="http://www.w3.org/1999/xlink" viewBox="0 0 568.03 437.1"><defs><style>.cls-1{fill:#c62a2a;}.cls-2{fill:url(#未命名的渐变_11);}.cls-3{fill:url(#未命名的渐变_11-2);}.cls-4{fill:url(#未命名的渐变_11-3);}.cls-5{fill:url(#未命名的渐变_11-4);}.cls-6{fill:url(#未命名的渐变_11-5);}.cls-7{fill:url(#未命名的渐变_11-6);}.cls-8{fill:url(#未命名的渐变_11-7);}.cls-9{fill:url(#未命名的渐变_11-8);}</style><linearGradient id="未命名的渐变_11" x1="222.65" y1="82.51" x2="222.65" y2="219.94" gradientUnits="userSpaceOnUse"><stop offset="0"/><stop offset="0.88" stop-color="#231815" stop-opacity="0"/></linearGradient><linearGradient id="未命名的渐变_11-2" x1="337.38" y1="237.65" x2="396.69" y2="237.65" xlink:href="#未命名的渐变_11"/><linearGradient id="未命名的渐变_11-3" x1="255.4" y1="411.06" x2="382.28" y2="411.06" xlink:href="#未命名的渐变_11"/><linearGradient id="未命名的渐变_11-4" x1="-28.68" y1="127.29" x2="103.29" y2="127.29" xlink:href="#未命名的渐变_11"/><linearGradient id="未命名的渐变_11-5" x1="540.1" y1="368.61" x2="540.1" y2="419.68" xlink:href="#未命名的渐变_11"/><linearGradient id="未命名的渐变_11-6" x1="471.28" y1="203.38" x2="471.28" y2="259.4" gradientTransform="translate(942.57 485.95) rotate(180)" xlink:href="#未命名的渐变_11"/><linearGradient id="未命名的渐变_11-7" x1="458.49" y1="218.36" x2="458.49" y2="260.96" gradientTransform="translate(916.98 499.66) rotate(180)" xlink:href="#未命名的渐变_11"/><linearGradient id="未命名的渐变_11-8" x1="445.7" y1="241.55" x2="445.7" y2="263.94" gradientTransform="translate(891.4 520.13) rotate(180)" xlink:href="#未命名的渐变_11"/></defs><title>资源 7</title><g id="图层_2" data-name="图层 2"><g id="图层_4" data-name="图层 4"><path class="cls-1" d="M222.09,104.18h0a50.24,50.24,0,0,0-10.91,1.22,48.7,48.7,0,0,0-36.26,39.17,46,46,0,0,0-.59,7.38V266.49a46.64,46.64,0,0,0,4.79,20.64,25.13,25.13,0,0,0,19.79,10,30.58,30.58,0,0,0,9.05-1.43l.18-.06c.27-.09.52-.2.78-.3l1-.4.33-.16.61-.3c-8.21-2.85-13.83-12.45-13.83-21.76V149.81a24.35,24.35,0,0,1,13.19-21.53c.32-.17.66-.33,1-.49h0a20.47,20.47,0,0,1,5.95-1.94,26.13,26.13,0,0,1,4.88-.47h1.31c13.8,0,25,10.94,25,24.43V272a46.79,46.79,0,0,1-3.77,13.63,48.72,48.72,0,0,1-33.06,27.2l-.73.16-.38.1a50.16,50.16,0,0,0,11.71,1.14h0c27,0,48.88-21.39,48.88-47.77V152C271,125.57,249.08,104.18,222.09,104.18Z"/><path class="cls-2" d="M222.09,104.18h0a50.24,50.24,0,0,0-10.91,1.22,48.7,48.7,0,0,0-36.26,39.17,46,46,0,0,0-.59,7.38V266.49a46.64,46.64,0,0,0,4.79,20.64,25.13,25.13,0,0,0,19.79,10,30.58,30.58,0,0,0,9.05-1.43l.18-.06c.27-.09.52-.2.78-.3l1-.4.33-.16.61-.3c-8.21-2.85-13.83-12.45-13.83-21.76V149.81a24.35,24.35,0,0,1,13.19-21.53c.32-.17.66-.33,1-.49h0a20.47,20.47,0,0,1,5.95-1.94,26.13,26.13,0,0,1,4.88-.47h1.31c13.8,0,25,10.94,25,24.43V272a46.79,46.79,0,0,1-3.77,13.63,48.72,48.72,0,0,1-33.06,27.2l-.73.16-.38.1a50.16,50.16,0,0,0,11.71,1.14h0c27,0,48.88-21.39,48.88-47.77V152C271,125.57,249.08,104.18,222.09,104.18Z"/><path class="cls-1" d="M199.77,315.41c-27.59,0-50-22-50-48.92V152c0-27,22.44-48.92,50-48.92a52.88,52.88,0,0,1,12.1,1.14,1.16,1.16,0,0,1,.89,1.12,1.15,1.15,0,0,1-.89,1.12l-.4.11c-18.28,4.57-32.51,19.93-35.42,38.23a23.23,23.23,0,0,0-.57,5.06V266.49a45.31,45.31,0,0,0,4.63,20A23.84,23.84,0,0,0,198.93,296h.58a24.33,24.33,0,0,0,8.06-1.37l.54,1-.39-1.09.78-.29c.32-.12.63-.25.93-.38l.17-.08.14-.07.23-.11.23-.1a.57.57,0,0,1,.13-.08l.46-.22a23.19,23.19,0,0,0,12.56-20.51V149.81a22.8,22.8,0,0,0-.92-6.42,24,24,0,0,0-11.77-14.58,1.14,1.14,0,0,1-.62-1,1.17,1.17,0,0,1,.66-1,26.56,26.56,0,0,1,6.21-2,35,35,0,0,1,5.66-.48h.75c14.42,0,26.15,11.47,26.15,25.58V272a47.87,47.87,0,0,1-3.87,14.1A50.09,50.09,0,0,1,211.76,314l-.44.09-.3.06A51.41,51.41,0,0,1,199.77,315.41Zm0-210.08C173.45,105.33,152,126.25,152,152V266.49c0,25.7,21.41,46.61,47.73,46.61a48.59,48.59,0,0,0,10.74-1.21l.71-.15a47.68,47.68,0,0,0,32.27-26.56,45.15,45.15,0,0,0,3.68-13.29V149.81c0-12.84-10.69-23.28-23.84-23.28h-.72a33.21,33.21,0,0,0-5.27.45,23.81,23.81,0,0,0-3.56,1,26.48,26.48,0,0,1,10.88,14.78,25.05,25.05,0,0,1,1,7.06v123a25.49,25.49,0,0,1-13.8,22.55l-.37.18-.1.06-.46.22-.56.26c-.33.15-.68.29-1,.43s-.54.21-.81.3l-.2.07a26.5,26.5,0,0,1-8.82,1.51h-.62a26.15,26.15,0,0,1-20.69-10.51.78.78,0,0,1-.11-.18,47.54,47.54,0,0,1-4.91-21.15V149.81a25.45,25.45,0,0,1,.61-5.49c2.8-17.63,15.69-32.7,32.68-38.7C204.07,105.38,201.74,105.33,199.77,105.33Z"/><path class="cls-1" d="M354.73,267.31H414A59.3,59.3,0,0,0,354.73,208Z"/><path class="cls-3" d="M354.73,267.31H414A59.3,59.3,0,0,0,354.73,208Z"/><rect class="cls-1" x="285.54" y="398.15" width="127.65" height="25.82"/><rect class="cls-4" x="285.54" y="398.15" width="126.88" height="25.82"/><path class="cls-1" d="M329.09,394.37a1.15,1.15,0,0,1-.94-1.82l82.18-116.3a1.14,1.14,0,0,1,1.6-.28,1.16,1.16,0,0,1,.28,1.61L330,393.88A1.14,1.14,0,0,1,329.09,394.37Z"/><path class="cls-1" d="M317.85,394.37a1.15,1.15,0,0,1-.66-.21,1.16,1.16,0,0,1-.28-1.61l82.18-116.3a1.14,1.14,0,0,1,1.6-.28,1.16,1.16,0,0,1,.28,1.61L318.8,393.88A1.17,1.17,0,0,1,317.85,394.37Z"/><path class="cls-1" d="M306.61,394.37a1.15,1.15,0,0,1-.66-.21,1.16,1.16,0,0,1-.28-1.61l82.18-116.3a1.15,1.15,0,1,1,1.88,1.33l-82.17,116.3A1.16,1.16,0,0,1,306.61,394.37Z"/><path class="cls-1" d="M348.2,327.45a60.3,60.3,0,0,1,0-120.6,1.14,1.14,0,0,1,1.15,1.15V326.3A1.15,1.15,0,0,1,348.2,327.45Zm-1.15-118.29a58,58,0,0,0,0,116Z"/><polygon class="cls-1" points="133.96 71.7 102.91 71.7 2.13 182.88 33.46 182.88 134.1 71.84 133.96 71.7"/><polygon class="cls-5" points="133.96 71.7 102.91 71.7 2.13 182.88 33.46 182.88 134.1 71.84 133.96 71.7"/><path class="cls-1" d="M132.51,68a1.16,1.16,0,0,1-1.15-1.16,64.53,64.53,0,0,0-129,0,1.16,1.16,0,1,1-2.31,0,66.84,66.84,0,0,1,133.67,0A1.16,1.16,0,0,1,132.51,68Z"/><path class="cls-1" d="M122,68a1.15,1.15,0,0,1-1.15-1.16,54,54,0,0,0-107.93,0,1.15,1.15,0,1,1-2.3,0,56.27,56.27,0,0,1,112.53,0A1.16,1.16,0,0,1,122,68Z"/><path class="cls-1" d="M111.38,68a1.15,1.15,0,0,1-1.15-1.16,43.4,43.4,0,0,0-86.79,0,1.16,1.16,0,1,1-2.31,0,45.7,45.7,0,0,1,91.4,0A1.15,1.15,0,0,1,111.38,68Z"/><path class="cls-1" d="M100.81,68a1.16,1.16,0,0,1-1.15-1.16,32.83,32.83,0,0,0-65.65,0,1.16,1.16,0,1,1-2.31,0,35.14,35.14,0,0,1,70.27,0A1.16,1.16,0,0,1,100.81,68Z"/><path class="cls-1" d="M90.25,68a1.16,1.16,0,0,1-1.16-1.16,22.26,22.26,0,0,0-44.52,0,1.15,1.15,0,1,1-2.3,0,24.57,24.57,0,0,1,49.13,0A1.16,1.16,0,0,1,90.25,68Z"/><path class="cls-1" d="M79.68,68a1.15,1.15,0,0,1-1.15-1.16,11.7,11.7,0,0,0-23.39,0,1.16,1.16,0,1,1-2.31,0,14,14,0,0,1,28,0A1.15,1.15,0,0,1,79.68,68Z"/><path class="cls-1" d="M69.11,68A1.16,1.16,0,0,1,68,66.83a1.13,1.13,0,0,0-2.25,0,1.16,1.16,0,1,1-2.31,0,3.44,3.44,0,0,1,6.87,0A1.16,1.16,0,0,1,69.11,68Z"/><path class="cls-1" d="M131.58,189.75H50.84a1.15,1.15,0,1,1,0-2.3h80.74a1.15,1.15,0,0,1,0,2.3Z"/><path class="cls-1" d="M131.58,196.62H50.84a1.15,1.15,0,1,1,0-2.3h80.74a1.15,1.15,0,0,1,0,2.3Z"/><path class="cls-1" d="M131.58,203.5H50.84a1.16,1.16,0,1,1,0-2.31h80.74a1.16,1.16,0,0,1,0,2.31Z"/><path class="cls-1" d="M131.58,210.37H50.84a1.15,1.15,0,1,1,0-2.3h80.74a1.15,1.15,0,0,1,0,2.3Z"/><path class="cls-1" d="M1.63,211.4a1.16,1.16,0,0,1-1.15-1.16V188.6a1.16,1.16,0,0,1,2.31,0v21.64A1.16,1.16,0,0,1,1.63,211.4Z"/><path class="cls-1" d="M9.94,211.4a1.16,1.16,0,0,1-1.16-1.16V188.6a1.16,1.16,0,0,1,2.31,0v21.64A1.16,1.16,0,0,1,9.94,211.4Z"/><path class="cls-1" d="M18.24,211.4a1.15,1.15,0,0,1-1.15-1.16V188.6a1.15,1.15,0,0,1,2.3,0v21.64A1.15,1.15,0,0,1,18.24,211.4Z"/><path class="cls-1" d="M26.55,211.4a1.16,1.16,0,0,1-1.16-1.16V188.6a1.16,1.16,0,0,1,2.31,0v21.64A1.16,1.16,0,0,1,26.55,211.4Z"/><path class="cls-1" d="M34.85,211.4a1.15,1.15,0,0,1-1.15-1.16V188.6a1.15,1.15,0,1,1,2.3,0v21.64A1.16,1.16,0,0,1,34.85,211.4Z"/><path class="cls-1" d="M43.15,211.4A1.16,1.16,0,0,1,42,210.24V188.6a1.16,1.16,0,0,1,2.31,0v21.64A1.16,1.16,0,0,1,43.15,211.4Z"/><path class="cls-1" d="M132.51,68H1.15a1.16,1.16,0,0,1,0-2.31H132.51a1.16,1.16,0,1,1,0,2.31Z"/><path class="cls-1" d="M512.56,384.36V436.9c30.42,0,55.08-23.52,55.08-52.54Z"/><path class="cls-6" d="M512.56,384.36V436.9c30.42,0,55.08-23.52,55.08-52.54Z"/><path class="cls-1" d="M502.38,428.4h-.06a55.52,55.52,0,0,1-52.93-55.54V281a1.15,1.15,0,1,1,2.3,0v91.81a53.22,53.22,0,0,0,50.75,53.24,1.16,1.16,0,0,1-.06,2.31Z"/><path class="cls-1" d="M502.38,436.35h-.05a63.39,63.39,0,0,1-60.89-63.5V281a1.15,1.15,0,1,1,2.3,0v91.81A61.08,61.08,0,0,0,502.43,434a1.16,1.16,0,0,1-.05,2.31Z"/><path class="cls-1" d="M502.38,420.43h-.06a47.67,47.67,0,0,1-45-47.58V281a1.15,1.15,0,1,1,2.3,0v91.81a45.36,45.36,0,0,0,42.8,45.28,1.15,1.15,0,0,1-.06,2.3Z"/><path class="cls-1" d="M502.38,412.43h-.08a39.8,39.8,0,0,1-37-39.58V281a1.16,1.16,0,1,1,2.31,0v91.81a37.48,37.48,0,0,0,34.86,37.28,1.15,1.15,0,0,1-.08,2.3Z"/><path class="cls-1" d="M502.38,404.48h-.1a31.93,31.93,0,0,1-29-31.62V281a1.16,1.16,0,1,1,2.31,0v91.81a29.62,29.62,0,0,0,26.93,29.33,1.15,1.15,0,0,1-.1,2.3Z"/><path class="cls-1" d="M558.93,376.58a1.14,1.14,0,0,1-1.15-1.15V277.64A53.24,53.24,0,0,0,507,224.4a1.15,1.15,0,0,1-1.09-1.2,1.17,1.17,0,0,1,1.21-1.1,55.52,55.52,0,0,1,52.93,55.54v97.79A1.14,1.14,0,0,1,558.93,376.58Z"/><path class="cls-1" d="M566.88,376.58a1.14,1.14,0,0,1-1.15-1.15V277.64A61.09,61.09,0,0,0,507,216.45a1.15,1.15,0,0,1-1.1-1.2,1.13,1.13,0,0,1,1.2-1.1A63.38,63.38,0,0,1,568,277.64v97.79A1.14,1.14,0,0,1,566.88,376.58Z"/><path class="cls-1" d="M551,376.58a1.14,1.14,0,0,1-1.15-1.15V277.64A45.35,45.35,0,0,0,507,232.37a1.15,1.15,0,0,1-1.09-1.22,1.14,1.14,0,0,1,1.21-1.09,47.66,47.66,0,0,1,45,47.58v97.79A1.15,1.15,0,0,1,551,376.58Z"/><path class="cls-1" d="M543,376.58a1.15,1.15,0,0,1-1.16-1.15V277.64A37.47,37.47,0,0,0,507,240.37a1.15,1.15,0,1,1,.16-2.3,39.79,39.79,0,0,1,37,39.57v97.79A1.15,1.15,0,0,1,543,376.58Z"/><path class="cls-1" d="M535.08,376.58a1.15,1.15,0,0,1-1.16-1.15V277.64A29.62,29.62,0,0,0,507,248.32a1.15,1.15,0,1,1,.2-2.3,31.94,31.94,0,0,1,29,31.62v97.79A1.15,1.15,0,0,1,535.08,376.58Z"/><path class="cls-1" d="M566.88,376.58h-31.8a1.15,1.15,0,1,1,0-2.3h31.8a1.15,1.15,0,0,1,0,2.3Z"/><path class="cls-1" d="M502.38,437.1a1.15,1.15,0,0,1-1.15-1.15V403.33a1.15,1.15,0,1,1,2.3,0V436A1.15,1.15,0,0,1,502.38,437.1Z"/><path class="cls-1" d="M507.09,248.32a1.14,1.14,0,0,1-1.15-1.15V215.3a1.15,1.15,0,0,1,2.3,0v31.87A1.14,1.14,0,0,1,507.09,248.32Z"/><path class="cls-1" d="M474.39,281.1h-31.8a1.16,1.16,0,0,1,0-2.31h31.8a1.16,1.16,0,1,1,0,2.31Z"/><rect class="cls-1" x="467.02" y="214.15" width="8.53" height="57.66" transform="translate(942.57 485.95) rotate(-180)"/><rect class="cls-1" x="454.23" y="227.85" width="8.53" height="43.95" transform="translate(916.98 499.66) rotate(-180)"/><rect class="cls-1" x="441.44" y="248.32" width="8.53" height="23.48" transform="translate(891.4 520.13) rotate(-180)"/><rect class="cls-7" x="467.02" y="214.15" width="8.53" height="57.66" transform="translate(942.57 485.95) rotate(-180)"/><rect class="cls-8" x="454.23" y="227.85" width="8.53" height="43.95" transform="translate(916.98 499.66) rotate(-180)"/><rect class="cls-9" x="441.44" y="248.32" width="8.53" height="23.48" transform="translate(891.4 520.13) rotate(-180)"/></g></g></svg>