<svg xmlns="http://www.w3.org/2000/svg" xmlns:xlink="http://www.w3.org/1999/xlink" viewBox="0 0 140.19 141.46"><defs><style>.cls-1{fill:#c62a2a;}.cls-2{fill:url(#未命名的渐变_11);}.cls-3{fill:url(#未命名的渐变_11-2);}.cls-4{fill:url(#未命名的渐变_11-3);}.cls-5{fill:url(#未命名的渐变_11-4);}.cls-6{fill:url(#未命名的渐变_11-5);}.cls-7{fill:url(#未命名的渐变_12);}</style><linearGradient id="未命名的渐变_11" x1="39.45" y1="127.1" x2="65.27" y2="127.1" gradientTransform="translate(3.36 -8.35) rotate(0.5)" gradientUnits="userSpaceOnUse"><stop offset="0"/><stop offset="0.88" stop-color="#231815" stop-opacity="0"/></linearGradient><linearGradient id="未命名的渐变_11-2" x1="89.58" y1="128.27" x2="137.94" y2="128.27" xlink:href="#未命名的渐变_11"/><linearGradient id="未命名的渐变_11-3" x1="106.81" y1="104.54" x2="108.61" y2="104.54" xlink:href="#未命名的渐变_11"/><linearGradient id="未命名的渐变_11-4" x1="29.05" y1="92.82" x2="45.44" y2="92.82" xlink:href="#未命名的渐变_11"/><linearGradient id="未命名的渐变_11-5" x1="88.03" y1="43.59" x2="104.25" y2="43.59" xlink:href="#未命名的渐变_11"/><linearGradient id="未命名的渐变_12" x1="42.46" y1="41.48" x2="59.93" y2="41.48" gradientTransform="translate(3.36 -8.35) rotate(0.5)" gradientUnits="userSpaceOnUse"><stop offset="0"/><stop offset="0.76" stop-color="#231815" stop-opacity="0"/></linearGradient></defs><title>资源 2</title><g id="图层_2" data-name="图层 2"><g id="图层_4" data-name="图层 4"><path class="cls-1" d="M58.31,65A86.13,86.13,0,0,0,47.52,45.24a1.17,1.17,0,0,0-2.14.74l-.15,16.75a.91.91,0,0,1-.46.91c-3.68,2.86-7.33,2.22-7.34,4s2.72,1.7,5,2.33-.18,3.65-3.39,4.38c-1.07.45-2.16,3.49-2.62,4.55-.47.91-2.63,4.39,0,4.41l12.18.11c1.37,0,1.85-3.34,2.32-4.7.31-1.06.5-5.48,2.62-4.24l15.75,9.57c.46.46.76.92.6,1.38-1.26,4.4-5.21,4.06-5.68,5.28A65.46,65.46,0,0,1,56.88,107c-.62.76-.47,1.37.59,1.83,11.68,4.52,14,15.65,2.54,23.32-1.07.75-2.61,2.26-3.67,1.18-3.47-3.53-6.78-7.36-10.86-11.05a1,1,0,0,0-1.52,0c-12.11,10.1-26.16,14.54-40.81,18.68a1.21,1.21,0,0,1-1-2.14c10.56-7.37,21-15,29.74-24.86a1.08,1.08,0,0,0-.29-1.83c-6.66-4.17-13.79-7-21.68-9.63a1.05,1.05,0,0,1-.6-1.67A127.23,127.23,0,0,0,15.8,87.13a1.09,1.09,0,0,0-1.06-1.68L2,85.34C.89,85.33.45,83.8,0,83l16.59.14a1.2,1.2,0,0,0,1.23-.75C19.84,77,21.87,71.5,23.59,66c.16-.76.77-.91,1.53-.75.76.47,4.09,1.56,4.11-.42l.12-13.55a1.24,1.24,0,0,0-2.13-.78A92.06,92.06,0,0,1,2.72,68a1.23,1.23,0,0,1-1.51-1.84C8.6,57.08,16,47.4,20.8,36.64c.46-.76-.14-1.68-1.2-1.69l-17-.15c-1.07,0-1.66-1.38-2.11-2.45l27.85.24a1.12,1.12,0,0,0,1.23-1.21l.26-30.13c0-1.07.47-1.37,1.38-1.21L49.1,2.94c.91.16,1.21.77,1,1.68-1.24,3-4.44,3.16-4.45,4.53l-.2,22.37a1.13,1.13,0,0,0,1.21,1.23l28,.24c1.67,0,1.51,1.39.74,2.44l-28.77-.24a1.12,1.12,0,0,0-1.23,1.2c0,.92-.65,4.41,1,4.43,7.15.82,20.07,3.06,22.44,10.24,2.38,6.72-3.46,12.3-9.11,14.68C59.06,66.19,58.45,65.88,58.31,65ZM13.24,30.63A130.07,130.07,0,0,0,7.65,7.9,1.12,1.12,0,0,1,9.19,6.4c6.68,2.18,15.32,5.91,16,13.23.4,6.54-5,10.15-10.46,12.08A1.16,1.16,0,0,1,13.24,30.63ZM25.7,103.51c4.72.49,8.67.83,12.32,1.32.61,0,.91-.14,1.07-.6a85,85,0,0,0,9-16.82c.15-.76-.14-1.68-1.21-1.68l-12.94-.12a1.16,1.16,0,0,0-1.07.76l-8,15.3A1.16,1.16,0,0,0,25.7,103.51ZM55.61,7a1.3,1.3,0,0,1,1.83-.75l13.34,6.67a.75.75,0,0,1,.6.76c.29,2.29-3.51,1.95-4.13,2.55A107.88,107.88,0,0,1,51.91,29.9c-1.07.76-2.43-.17-2-1.23ZM139.86,122.3c-5.38,5.44-9.39,11.64-13.56,18.46-.31.75-.92.9-1.67.44a89.69,89.69,0,0,1-26.43-25c-.6-.77-1.21-.77-1.82-.17-10.6,10.87-23.3,17.91-36.89,23.28a1.17,1.17,0,0,1-1.2-2C70.71,127,81.46,115.56,89.5,101.77a1.28,1.28,0,0,0,0-1.06c-5.23-11.77-8.16-24.89-9.41-38.44C80,61.2,78.59,60.58,78,61.64l-6.62,8.47c-.77,1.06-2.58,0-2.12-1.24C76.72,48.38,83,25.76,84.26,3.7c.16-1.07.77-1.37,1.53-1.06l23.08,6c1.07.46,1.21,1.07.75,1.83-2,3.64-5.65,2.39-6.12,3.91a127.68,127.68,0,0,1-9.18,22.14,1.09,1.09,0,0,0,1.06,1.68l41.4.36a1.3,1.3,0,0,1,0,2.59l-9.28-.08a1.16,1.16,0,0,0-1.23,1.06c-2.46,20.83-7.35,40.73-17.85,58.14a1.22,1.22,0,0,0,.29,1.53,85.71,85.71,0,0,0,30.74,18.53A1.26,1.26,0,0,1,139.86,122.3ZM92.77,40.76c-.61,0-.92.14-1.08.6A137.54,137.54,0,0,1,82,56.19c-.16.46-.32.91-.17,1.07A121.48,121.48,0,0,0,95.42,85.54a1.2,1.2,0,0,0,2.14-.29c5.44-13.8,8.3-27.78,9.81-43,.16-.92-.14-1.37-1.21-1.38Z"/><path class="cls-2" d="M60,132.13c11.48-7.67,9.14-18.8-2.54-23.31-1.06-.47-1.21-1.08-.59-1.84.45-.73.88-1.47,1.31-2.21a83.2,83.2,0,0,1-16.52,19.3c.77-.59,1.53-1.2,2.29-1.82a1,1,0,0,1,1.52,0c4.08,3.69,7.39,7.52,10.86,11C57.4,134.39,58.94,132.88,60,132.13Z"/><path class="cls-3" d="M139.42,120.31a85.71,85.71,0,0,1-30.74-18.53,1.25,1.25,0,0,1-.34-1.42c-1.69,3-3.62,6.25-4.73,7.75-2.13,2.87-10.8,11.24-11.78,12.18,1.55-1.37,3.07-2.8,4.55-4.31.61-.6,1.22-.6,1.82.17a89.69,89.69,0,0,0,26.43,25c.75.46,1.36.31,1.67-.44,4.17-6.82,8.18-13,13.56-18.46A1.26,1.26,0,0,0,139.42,120.31Z"/><path class="cls-4" d="M109.25,98.76c.63-1.09,1.24-2.18,1.83-3.29C110.66,96.23,110,97.41,109.25,98.76Z"/><path class="cls-5" d="M33.92,85.64l12.94.11a1.29,1.29,0,0,1,.35,0L48,83.47l-11.64-.1c-1.59,0-1.39-1.34-.88-2.56l-3.92,7.85h.08l1.19-2.27A1.14,1.14,0,0,1,33.92,85.64Z"/><path class="cls-6" d="M94.32,36.5q1.83-3.51,3.46-7.09S93.54,37.83,91,42.65c.25-.43.5-.86.74-1.3s.47-.61,1.08-.6l12.6.11,1.85-2.57-11.84-.11A1.09,1.09,0,0,1,94.32,36.5Z"/><path class="cls-7" d="M45.5,30.18l-.06,6.63c0-.15,0-.28,0-.38a1.13,1.13,0,0,1,1.23-1.21l16.23.14s-.42-2.44-.74-2.44l-15.47-.13a1.13,1.13,0,0,1-1.21-1.23l0-1.38Z"/></g></g></svg>