<svg xmlns="http://www.w3.org/2000/svg" viewBox="0 0 125.43 128.15"><defs><style>.cls-1,.cls-2{fill:#c62a2a;}.cls-1{stroke:#c62a2a;stroke-linecap:round;stroke-linejoin:round;stroke-width:2px;}</style></defs><title>资源 16</title><g id="图层_2" data-name="图层 2"><g id="图层_4" data-name="图层 4"><line class="cls-1" x1="2.53" y1="77.51" x2="123.87" y2="77.51"/><line class="cls-1" x1="2.53" y1="68.98" x2="2.53" y2="77.51"/><line class="cls-1" x1="26.8" y1="72.41" x2="26.8" y2="77.51"/><line class="cls-1" x1="51.07" y1="72.41" x2="51.07" y2="77.51"/><line class="cls-1" x1="75.34" y1="72.41" x2="75.34" y2="77.51"/><line class="cls-1" x1="99.6" y1="72.41" x2="99.6" y2="77.51"/><line class="cls-1" x1="123.87" y1="68.98" x2="123.87" y2="77.51"/><path class="cls-2" d="M.41,33.9c6.4-4.63,13.75-14.84,16.89-22.33a1,1,0,0,1,.95-.69c1.23,0,1.23,1.64,1.63,2.59,1,2.73.82,5,2.32,5H54.75c1,0,1.36-.41,1-1.36-.54-1.77-1.22-3.54-1.9-5.31C48.76-.42,47.39-.28,53.52.13,63.6.81,78,4.35,68.5,16.88a1,1,0,0,0,.82,1.63h32.42a1.06,1.06,0,0,0,1.08-.68l2.86-7.76c.41-1,1-1.09,1.64-.55L125,24.1a1.2,1.2,0,0,1,.41.95c0,1.63-4.22,1.77-5.17,1.77-.41,0-20,9.26-22.34,10.35a1.07,1.07,0,0,1-1.5-1.36l4.91-13.76a1,1,0,0,0-1-1.5H23c-2.73,0,1.09,5.45-1.09,14.44C19.07,46.57,4,53.1,0,35A1.55,1.55,0,0,1,.41,33.9Zm26.56,9c-.41-1-.82-2.18.68-2.18h52a1.08,1.08,0,0,0,1-.41l4.63-7.22c.4-.68.95-.68,1.63-.27L104.6,47a1.12,1.12,0,0,1,.13,1.63c-3,3.68-7.49,1.09-8.58,1.5L74.22,59.78c-.68.13-.81.54-.68,1.09,0,1.9,3.82.41,3.41,2.58-1.09,4.36-5,3.68-5,5.32v6.94A1,1,0,0,0,73,76.8h50.8a1.09,1.09,0,1,1,0,2.18H73a1,1,0,0,0-1.09,1.09V103.9c0,19.34-3.68,21.39-23.29,24.25-.41,0-.68,0-.82-.14-1.09-1.09-.41-11-13.34-16.48a1.15,1.15,0,0,1,.54-2.18l14.85.55a4,4,0,0,0,4.22-3.68c.41-3.27.27-21.66.27-26.15A1,1,0,0,0,53.25,79H2.86a1.09,1.09,0,1,1,0-2.18H53.25a1,1,0,0,0,1.09-1.09V58.82c0-1,.41-1.22,1.36-1.09L67,60.32a1.25,1.25,0,0,0,1.09-.54l9.8-15.26a1.07,1.07,0,0,0-1-1.63Z"/><path class="cls-2" d="M94.92,76.8H73a1,1,0,0,1-1.09-1.09v4.36A1,1,0,0,1,73,79H94.92Z"/><path class="cls-2" d="M21.48,19.43c.35,1.45.76,4.83.76,4.83h0c-.33-2.39-.57-3.71.77-3.71H41.25l-.33-2H22.2c-.63,0-1-.41-1.23-1.09C21.16,18.13,21.35,18.88,21.48,19.43Z"/></g></g></svg>