<svg xmlns="http://www.w3.org/2000/svg" viewBox="0 0 85.83 83.43"><defs><style>.cls-1{fill:#c62a2a;}</style></defs><title>资源 4</title><g id="图层_2" data-name="图层 2"><g id="图层_4" data-name="图层 4"><path class="cls-1" d="M7.86,62.11c-1.07,0-1.26-1.75-.09-1.75H35.51a.72.72,0,0,0,.78-.78V44.68a.72.72,0,0,0-.78-.78H21.2c-1.75,0-.09,4.48-1.17,5.26-3,2-6.91,2.53-10.41,2.53a.72.72,0,0,1-.78-.78V1.26c0-.69.29-.88.78-.78C15.85,1,20.23,4,20.62,4H64.33C64.82,4,74.07.67,75.43.09c.49-.29,1,.19,1,.68V51.11c0,.48-.2.78-.68.78a14.43,14.43,0,0,1-5-.1c-1-.29-6.33-1.17-6.33-2.53V44.68a.72.72,0,0,0-.78-.78H49.05a.72.72,0,0,0-.78.78v14.9a.72.72,0,0,0,.78.78H78.84c1.17,0,1,1.75-.1,1.75H49.05a.72.72,0,0,0-.78.78V81a.72.72,0,0,0,.78.78h36c1.07,0,1,1.65-.09,1.65H.85c-1.07,0-1.16-1.65-.09-1.65H35.51a.72.72,0,0,0,.78-.78V62.89a.72.72,0,0,0-.78-.78ZM21.2,5.54a.72.72,0,0,0-.78.78V22.09a.72.72,0,0,0,.78.78H35.51a.72.72,0,0,0,.78-.78V6.32a.72.72,0,0,0-.78-.78Zm0,19.08a.72.72,0,0,0-.78.78v16a.72.72,0,0,0,.78.78H35.51a.72.72,0,0,0,.78-.78v-16a.72.72,0,0,0-.78-.78ZM49.05,5.54a.72.72,0,0,0-.78.78V22.09a.72.72,0,0,0,.78.78h14.6a.72.72,0,0,0,.78-.78V6.32a.72.72,0,0,0-.78-.78Zm0,19.08a.72.72,0,0,0-.78.78v16a.72.72,0,0,0,.78.78h14.6a.72.72,0,0,0,.78-.78v-16a.72.72,0,0,0-.78-.78Z"/><path class="cls-1" d="M49.31,43.9H60.66V42.15H49.31a1,1,0,0,1-1-.43v2.61A1,1,0,0,1,49.31,43.9Z"/><path class="cls-1" d="M48.34,59.93v2.6a1.06,1.06,0,0,1,1-.42H60.66V60.36H49.31A1,1,0,0,1,48.34,59.93Z"/><path class="cls-1" d="M49.31,24.62H60.66V22.87H49.31a1.06,1.06,0,0,1-1-.42v2.6A1,1,0,0,1,49.31,24.62Z"/><path class="cls-1" d="M60.66,81.78H49.31a1,1,0,0,1-1-.43v2.08H60.66Z"/><path class="cls-1" d="M48.34,6a1,1,0,0,1,1-.43H60.66V4H48.34Z"/></g></g></svg>