
<svg xmlns="http://www.w3.org/2000/svg" viewBox="0 0 53.54 59.52"><defs><style>.cls-1{fill:#c62a2a;}</style></defs><title>资源 17</title><g id="图层_2" data-name="图层 2"><g id="图层_4" data-name="图层 4"><path class="cls-1" d="M22.16,11.28c.45-.06.64.07.64.51l.13,43.3a.47.47,0,0,1-.51.51,11.47,11.47,0,0,1-3-.19c-.7,0-3.71-.7-3.71-1.54V50.61a.48.48,0,0,0-.52-.51H7.75a.47.47,0,0,0-.51.51l.06,5.25c0,.7-1.66,1.22-2.18,1.41-.76.38-5,1.22-5,.06L0,11.54a.55.55,0,0,1,.13-.39c.57-.57,4,.64,4.55.84s2.05,1.21,2.05.13L6.85.52A.52.52,0,0,1,7.43,0l9.86,1.86c.45.06.58.32.39.7-.9,1.6-2.5,1.41-2.82,1.92a43.43,43.43,0,0,1-6.15,8.14.53.53,0,0,0,.39.89h6.53v-.06ZM7.69,14.55a.48.48,0,0,0-.52.51V29.6a.48.48,0,0,0,.52.51h7.49a.47.47,0,0,0,.51-.51l-.06-14.54a.47.47,0,0,0-.51-.51Zm0,16.59c-.32,0-.52.19-.52.57l.07,16.85a.47.47,0,0,0,.51.51h7.49a.48.48,0,0,0,.52-.51l-.07-16.91a.47.47,0,0,0-.51-.51Zm26.19,8.58c-1-5.12-2.37-11.53-4.42-16.33a.53.53,0,0,0-.89-.07,50.91,50.91,0,0,1-3.46,4,.51.51,0,0,1-.84-.57A92,92,0,0,0,30.1.78a.48.48,0,0,1,.58-.45l10,2.31c.45.06.58.32.38.7-.83,1.86-2.75,1.41-2.94,2.11a66.19,66.19,0,0,1-2.56,6.34.49.49,0,0,0,.45.71h9.92c.39,0,6.09-1.73,6.92-1.92.45-.19.7.06.7.51l-1.6,37.28a12.79,12.79,0,0,1-1.15,5.31c-2,4.29-6.85,5.32-11.14,5.83-.32.06-.52-.13-.58-.45-.51-4.61-3-6.47-7.24-8.13a.55.55,0,0,1,.19-1l8.14.32c3.07.2,4-1.28,4.16-4.42l1.15-31.64a.47.47,0,0,0-.51-.51H35a.42.42,0,0,0-.44.26A54.51,54.51,0,0,1,29.53,22c-.26.32-.2.58.25.77,3.91,1.79,8.2,4,10.25,7,3.33,4.68-.45,10.31-5.64,10.31A.49.49,0,0,1,33.88,39.72Z"/><path class="cls-1" d="M7.69,14.56H14.1v-1h-5a.54.54,0,0,1-.39-.9l.43-.47c-.28.3-1,1.08-1.3,1.45a3.17,3.17,0,0,0-.63,1.24A.47.47,0,0,1,7.69,14.56Z"/><path class="cls-1" d="M7.69,31.14h5.39v-1H7.69a.46.46,0,0,1-.49-.36v1.77A.46.46,0,0,1,7.69,31.14Z"/><path class="cls-1" d="M34.59,13.91a.42.42,0,0,1,.44-.26h8.41V12.5H36a.51.51,0,0,1-.48-.64c-.47,1-1.1,2.38-1.64,3.32l0,.09C34.1,14.82,34.35,14.37,34.59,13.91Z"/><path class="cls-1" d="M28.57,23.32a.53.53,0,0,1,.89.07c2.05,4.8,3.4,11.21,4.42,16.33a.49.49,0,0,0,.51.38c5.19,0,9-5.63,5.64-10.31-2.05-3-6.34-5.19-10.25-7-.45-.19-.51-.45-.25-.77S28.38,23.57,28.57,23.32Z"/><path class="cls-1" d="M13.55,49.08H7.75a.46.46,0,0,1-.51-.47v2a.47.47,0,0,1,.51-.47h5.8Z"/></g></g></svg>