<svg xmlns="http://www.w3.org/2000/svg" viewBox="0 0 139.95 195.63"><defs><style>.cls-1{fill:none;stroke-width:2px;}.cls-1,.cls-2{stroke:#c62a2a;stroke-miterlimit:10;}.cls-2{fill:#c62a2a;}.cls-3{fill:#fff;}</style></defs><title>资源 2</title><g id="图层_2" data-name="图层 2"><g id="图层_3" data-name="图层 3"><rect class="cls-1" x="12.98" y="12.05" width="125.97" height="182.57"/><rect class="cls-2" x="0.68" y="0.5" width="125.97" height="182.57"/><path class="cls-3" d="M46.93,81.5a48.21,48.21,0,0,0,14,6.12l-2.32,5.22-2.34-1c-.76-.31-1.48-.63-2.17-1v14.47H26.7V91.32l-2.1,1-2.23,1-2.63-5.18a48.46,48.46,0,0,0,7.36-2.88,58.91,58.91,0,0,0,6.57-3.73H23V76.68H37.55V73l5.67.22v3.44h15V81.5ZM23.08,107.58H57.91v4.73H23.08ZM50.9,89.36Q48.66,88.21,46.79,87a34.18,34.18,0,0,1-3.57-2.63v4.15H37.55V84.45A40,40,0,0,1,34.25,87q-1.74,1.22-3.8,2.37Zm-2.37,4.11H32.28v1.78H48.53Zm0,7.68V99.32H32.28v1.83Z"/><path class="cls-3" d="M98.81,105.79A3.44,3.44,0,0,1,97.62,108a5.48,5.48,0,0,1-2.7.64c-.77.06-1.43.09-2,.09s-1.15,0-1.83-.09a8.57,8.57,0,0,1-1.66-.22,2.84,2.84,0,0,1-1.18-.58,2.5,2.5,0,0,1-.71-1.09,5.56,5.56,0,0,1-.25-1.86v-6h-2.5a19.32,19.32,0,0,1-.71,4.21,10.2,10.2,0,0,1-1.52,3,11.68,11.68,0,0,1-2.39,2.37,34.58,34.58,0,0,1-3.33,2.16l-2.76-4.15v7.05H68.8V81.59l5.32.27V106.1a28.57,28.57,0,0,0,2.59-1.36,7.14,7.14,0,0,0,1.76-1.45,5.63,5.63,0,0,0,1-1.85A11.14,11.14,0,0,0,80,98.83H76.3V85.34h3.62l-1.16-4L84.3,81l.89,4.33h2.23L88.58,81l5.45.31-1.21,4h3.57V98.83H91.93v4.59a1.15,1.15,0,0,0,.2.81,1,1,0,0,0,.69.18h.81c.41,0,.68-.09.8-.27a2.28,2.28,0,0,0,.27-.89c.06-.42.1-.82.13-1.21s.06-.82.09-1.29l4.33,1.6q0,.86-.15,1.77C99,104.73,98.92,105.28,98.81,105.79ZM75.59,82.62q-.54-.68-1.32-1.5t-1.65-1.65c-.58-.55-1.15-1.08-1.72-1.58s-1.09-.94-1.56-1.3l3.12-3.39c.45.33,1,.72,1.52,1.18s1.13,1,1.7,1.47l1.65,1.57a19.69,19.69,0,0,1,1.38,1.45Zm29.29-7.28v31.21a17.42,17.42,0,0,1-.27,3.35,5.15,5.15,0,0,1-1,2.21,4.06,4.06,0,0,1-1.94,1.29,13.51,13.51,0,0,1-3.22.6l-2.5.23-1.56-4.73,2.72-.27a7.56,7.56,0,0,0,1.59-.27,1.54,1.54,0,0,0,.8-.51,1.67,1.67,0,0,0,.29-.87c0-.36,0-.84,0-1.43V80.25H79.34V75.34ZM81,94.49H91.66V89.81H81Z"/><path class="cls-3" d="M58.67,166.69q-3.8-.41-6.86-.8T46.23,165c-1.68-.31-3.2-.66-4.55-1a34.14,34.14,0,0,1-3.82-1.34,23,23,0,0,1-5.87,3A74.63,74.63,0,0,1,23.22,168l-2.23-5c2.67-.59,5-1.17,6.83-1.72a31.15,31.15,0,0,0,4.73-1.76,54.6,54.6,0,0,1-5.63-4.78l1.57-1.52H25v-18H37.86v-2.1h-15v-4.91H58.58v4.91H43.44v2.1H56.35v18H43.22a15.58,15.58,0,0,1-1.65,5.32,42.79,42.79,0,0,0,7.54,1.72,102.9,102.9,0,0,0,11,.87ZM30.45,139.9V142h7.41v-2.1Zm0,8.75h7.41V146.6H30.45Zm2.41,4.64c.6.54,1.19,1.05,1.79,1.52a16,16,0,0,0,1.92,1.34,10.85,10.85,0,0,0,1-2.86ZM43.44,139.9V142H51v-2.1ZM51,148.65V146.6H43.44v2.05Z"/><path class="cls-3" d="M105.37,146.15V151q-1.92,1.88-3.91,3.53a47.41,47.41,0,0,1-4.24,3.13,51.09,51.09,0,0,1-4.89,2.81A59.24,59.24,0,0,1,86.44,163c-2.18.81-4.59,1.6-7.26,2.36s-5.64,1.5-9,2.21l-2.59-4.64q5.31-1.12,9.42-2.23t7.32-2.28l-5.08-3.35c-1.14.69-2.33,1.36-3.58,2s-2.59,1.32-4,2l-2.94-4.51a66.31,66.31,0,0,0,7.79-4,59,59,0,0,0,6.58-4.53,94.12,94.12,0,0,1-12.63,3.66L68.09,145q3.93-.76,7.3-1.7c2.25-.63,4.38-1.3,6.41-2-.6-.39-1.31-.83-2.13-1.34s-1.63-1-2.43-1.47c-.86.5-1.73,1-2.61,1.49s-1.79,1-2.75,1.41l-3-4.33a65.41,65.41,0,0,0,8.82-5.18,44.7,44.7,0,0,0,6.67-5.63l4.69,2.37a5.58,5.58,0,0,1-.49.6l-.53.6H103.9v4.87a73.09,73.09,0,0,1-6.37,4.47,75.87,75.87,0,0,1-7.65,4.15l2,1.07-1.52,1.74ZM81.71,135.57l2.09,1.09,2,1.05-2.68,3.17q3.8-1.42,7-3a64.62,64.62,0,0,0,5.84-3.19H82.78l-.54.43C82.06,135.28,81.88,135.42,81.71,135.57ZM85.55,158c1.48-.57,2.84-1.14,4.06-1.72s2.33-1.17,3.35-1.77,1.93-1.19,2.76-1.78,1.61-1.19,2.33-1.79H85.23c-.24.21-.48.4-.73.58l-.74.54c.83.45,1.66.91,2.48,1.38s1.6.93,2.34,1.34Z"/><path class="cls-3" d="M60.91,11.27A23.45,23.45,0,1,1,37.46,34.71,23.45,23.45,0,0,1,60.91,11.27Zm0,4.26A19.18,19.18,0,1,0,80.09,34.71,19.18,19.18,0,0,0,60.91,15.53Z"/><path class="cls-3" d="M86.77,58.43a1.42,1.42,0,0,1,.23,2l-3.54,3.3a1.43,1.43,0,0,1-1.94-.37l-9.18-9.86a1.43,1.43,0,0,1-.23-2l3.55-3.31a1.44,1.44,0,0,1,1.94.38Z"/><rect class="cls-3" x="58.15" y="26.06" width="4.95" height="17.3" rx="1.42"/><rect class="cls-3" x="52.33" y="32.23" width="17.3" height="4.95" rx="1.42"/><line class="cls-1" x1="126.65" y1="1.17" x2="138.95" y2="12.05"/><line class="cls-1" x1="0.68" y1="183.07" x2="12.98" y2="194.63"/></g></g></svg>