<svg xmlns="http://www.w3.org/2000/svg" viewBox="0 0 139.95 195.63"><defs><style>.cls-1{fill:none;stroke-width:2px;}.cls-1,.cls-2{stroke:#c62a2a;stroke-miterlimit:10;}.cls-2{fill:#c62a2a;}.cls-3{fill:#fff;}</style></defs><title>资源 3</title><g id="图层_2" data-name="图层 2"><g id="图层_3" data-name="图层 3"><rect class="cls-1" x="12.98" y="12.05" width="125.97" height="182.57"/><rect class="cls-2" x="0.68" y="0.5" width="125.97" height="182.57"/><line class="cls-1" x1="126.65" y1="1.17" x2="138.95" y2="12.05"/><line class="cls-1" x1="0.68" y1="183.07" x2="12.98" y2="194.63"/><path class="cls-3" d="M60.11,92.43c-.93-.6-1.8-1.2-2.61-1.81s-1.62-1.22-2.39-1.81c-.09,1.07-.19,2.29-.29,3.66s-.22,2.73-.34,4.09-.24,2.63-.36,3.84-.2,2.19-.26,3a25.3,25.3,0,0,1-.58,3.64,4.68,4.68,0,0,1-1.1,2.12,3.81,3.81,0,0,1-1.9,1,17.42,17.42,0,0,1-3,.43l-3.7.26L42,105.42l3.17-.18a8.41,8.41,0,0,0,1.5-.18A1.59,1.59,0,0,0,48,103.74c.09-.37.18-.85.27-1.45s.13-1.28.22-2.23.18-1.93.27-3,.17-1.93.25-2.76.12-1.39.15-1.66H39.88l-.13,1.39a31.46,31.46,0,0,1-1,5.47,15.57,15.57,0,0,1-2.1,4.46,19.27,19.27,0,0,1-3.7,4,46.9,46.9,0,0,1-5.87,4.06l-3.93-4.64a36.54,36.54,0,0,0,5.2-3.06,15.65,15.65,0,0,0,3.15-3,10.14,10.14,0,0,0,1.69-3.3A26.86,26.86,0,0,0,34,94l.14-1.34H29.39V89c-.6.51-1.21,1-1.85,1.54l-2,1.59-3.44-4.51a46.65,46.65,0,0,0,8.15-7.39A36,36,0,0,0,36,71.4l5.23,2.1a39.18,39.18,0,0,1-4.2,7.38,46.65,46.65,0,0,1-5.58,6.28H53.1a34.9,34.9,0,0,1-2.93-2.9A28.85,28.85,0,0,1,47.65,81a37.22,37.22,0,0,1-2.17-3.73,46,46,0,0,1-1.89-4.36l5-2.18A31.77,31.77,0,0,0,51,75.88a27.58,27.58,0,0,0,3.22,4.38,35.66,35.66,0,0,0,4.08,3.84,49.74,49.74,0,0,0,5,3.5Z"/><path class="cls-3" d="M107.7,103.19H92v1.25a15.7,15.7,0,0,1-.26,3.21,4.42,4.42,0,0,1-1,2,4.09,4.09,0,0,1-1.83,1.16,12.43,12.43,0,0,1-2.88.52l-3.44.31-1.7-5,3.08-.26a8.13,8.13,0,0,0,1.19-.23,1.37,1.37,0,0,0,.73-.47,2,2,0,0,0,.38-.91,8.21,8.21,0,0,0,.11-1.56H69.57V98.63H86.4v-.89l6.7-2.32H73.19V91.26H104v4.16l-8.71,3.21H107.7Zm-.85-24.47H70.55v-4.2h15.5l-.72-3.21,5.9-.27L92,74.52h14.87ZM74.17,89.66V80.37h29.07v9.29Zm5.27-3.84H97.92V84.17H79.44Z"/><path class="cls-3" d="M55.24,153.19a32.72,32.72,0,0,0,3.55,3.86c1.32,1.24,2.84,2.51,4.53,3.82l-3.7,4.6a43.62,43.62,0,0,1-7.37-7.86,49.15,49.15,0,0,1-8.48,7.81l-3.22-3.84-.8,1.66c-1.31-.78-2.76-1.61-4.33-2.5A40.16,40.16,0,0,1,31,163.06a53.37,53.37,0,0,1-6.18,2.27l-2.36-4.59a54.54,54.54,0,0,0,8.3-2.5c-2.14-1.08-4.26-2-6.34-2.86.71-1.07,1.38-2.19,2-3.35H22.87v-4.46h5.72c.38-.93.74-1.82,1.07-2.68l5,1.34c-.09.23-.17.46-.24.67s-.16.43-.25.67h8.66v4.19c-.5,1-1,2-1.54,2.9a15,15,0,0,1-1.94,2.68c.42.18.84.38,1.27.58s.87.43,1.32.67l-1.12,2.28A34.91,34.91,0,0,0,45.8,157a24.47,24.47,0,0,0,3.55-4.27,31.88,31.88,0,0,1-1.86-4.68A44.91,44.91,0,0,1,46.27,143l-.72,1.25-.71,1.25-1.48-2.63-2.45,3.3c-.66-.71-1.37-1.41-2.14-2.1s-1.52-1.29-2.24-1.83v3H31.62v-3.7a31,31,0,0,1-3.15,3,26.43,26.43,0,0,1-3.95,2.68l-2.63-4.11a28.73,28.73,0,0,0,4.37-2.34,26.28,26.28,0,0,0,3.62-2.84H23.59V133.5h3.75c-.24-.45-.51-.91-.81-1.41s-.6-1-.91-1.42-.63-.91-.94-1.34a13.25,13.25,0,0,0-.87-1.1L27.25,126a24.35,24.35,0,0,1,2,2.52,26.93,26.93,0,0,1,1.83,3L28.1,133.5h3.52V125l4.91.27v6.43a23.08,23.08,0,0,0,2.08-2.81,25.3,25.3,0,0,0,1.76-3.13l3.8,2.46c-.51.8-1.11,1.7-1.81,2.7s-1.35,1.87-1.94,2.61H43v4.42a42.53,42.53,0,0,0,3-6.41,43.42,43.42,0,0,0,1.92-6.58l5.22,1q-.31,1.25-.69,2.55t-.87,2.67H61.76v5.45H59.44A72.94,72.94,0,0,1,58,145.89,29.23,29.23,0,0,1,55.24,153.19ZM32.07,152c-.18.33-.35.62-.52.89l-.46.76c1.34.51,2.7,1.06,4.1,1.65a8.18,8.18,0,0,0,1.16-1.54c.33-.55.64-1.14.94-1.76ZM38,138.41a27.8,27.8,0,0,1,2.43,1.74c.91.72,1.86,1.52,2.84,2.41l-1.47-2.63a10.91,10.91,0,0,0,.64-1l.61-1H36.53v2.14Zm11.3-1.47a45.79,45.79,0,0,0,1,5.78,29.16,29.16,0,0,0,1.68,4.93,33.73,33.73,0,0,0,1.43-5.13c.35-1.82.64-3.8.84-5.94H49.44A1,1,0,0,1,49.26,136.94Z"/><path class="cls-3" d="M99.66,146.58v3.35h6.84v14.2H88.19v-14.2h6.47v-3.35H88.28c-.12,2-.3,3.77-.54,5.41a33.78,33.78,0,0,1-1,4.59,29.78,29.78,0,0,1-1.49,4.13,36.17,36.17,0,0,1-2.15,4l-4.28-2.59A3,3,0,0,1,77.63,164a6.63,6.63,0,0,1-2.66.78l-3.34.36-1.43-5,2.36-.32c.66-.09,1.08-.27,1.25-.56a3,3,0,0,0,.27-1.49V149.4l-2.45,1-2,.85-1.16-5.54c.71-.23,1.56-.54,2.54-.91l3.08-1.18v-6.21h-4v-5.31h4v-6.83l5.09.22v6.61h3v5.31h-3v4.24l1.36-.58,1.23-.53.27,2.27.58,3.13-3.44,1.34v12.52a4.89,4.89,0,0,1-.09,1,30.9,30.9,0,0,0,2.06-4.29,29.23,29.23,0,0,0,1.29-4.5,40,40,0,0,0,.69-5.41c.14-2,.2-4.31.2-7V126.54H107v12.59H99.66v2.68h8.84v4.77ZM88.41,131.31v3.08H101.9v-3.08Zm6.25,10.5v-2.68H88.41v2.68Zm6.88,12.9H93.1v4.78h8.44Z"/><path class="cls-3" d="M78,20.53a1.57,1.57,0,0,1,2.25-2.2L83,21.11a2.14,2.14,0,0,1,0,3l-2.79,2.78A1.57,1.57,0,1,1,78,24.7l.46-.47h-2c-5.55,0-7.44,3.49-7.44,10.64a1.56,1.56,0,1,1-3.12,0c0-8.84,3.21-13.8,10.6-13.8h2L78,20.53Z"/><path class="cls-3" d="M67.47,36.93a2.06,2.06,0,0,1-2.06-2.06c0-9.49,3.74-14.31,11.1-14.31h.88A2,2,0,0,1,77.68,18a2.12,2.12,0,0,1,2.93,0l2.78,2.79a2.62,2.62,0,0,1,0,3.73l-2.78,2.79a2.12,2.12,0,0,1-3,0,2,2,0,0,1-.6-1.49,2,2,0,0,1,.3-1.05h-.89c-5,0-6.94,2.84-6.94,10.14A2.06,2.06,0,0,1,67.47,36.93Zm9-15.36c-6.79,0-10.09,4.35-10.09,13.3a1.06,1.06,0,1,0,2.11,0c0-7.81,2.37-11.14,7.94-11.14h3.24l-1.33,1.32a1,1,0,0,0-.32.74,1.1,1.1,0,0,0,.32.78,1.08,1.08,0,0,0,1.52,0l2.78-2.79a1.61,1.61,0,0,0,0-2.31L79.9,18.68a1.09,1.09,0,0,0-1.52,0,1,1,0,0,0,0,1.5l1.38,1.39Z"/><path class="cls-3" d="M66.54,57.09a22.27,22.27,0,1,1,0-44.53,1.67,1.67,0,1,1,0,3.34A18.93,18.93,0,1,0,85.46,34.83a1.67,1.67,0,0,1,3.34,0A22.3,22.3,0,0,1,66.54,57.09Z"/><path class="cls-3" d="M66.54,57.59a22.77,22.77,0,1,1,0-45.53,2.17,2.17,0,0,1,0,4.34A18.43,18.43,0,1,0,85,34.83a2.17,2.17,0,1,1,4.34,0A22.79,22.79,0,0,1,66.54,57.59Zm0-44.53A21.77,21.77,0,1,0,88.3,34.83a1.17,1.17,0,1,0-2.33,0A19.43,19.43,0,1,1,66.54,15.4a1.17,1.17,0,1,0,0-2.34Z"/></g></g></svg>