<svg xmlns="http://www.w3.org/2000/svg" viewBox="0 0 68.25 68.25"><defs><style>.cls-1{fill:#9fa0a0;}.cls-2{fill:none;stroke:#9fa0a0;stroke-miterlimit:10;stroke-width:2px;}</style></defs><title>资源 2</title><g id="图层_2" data-name="图层 2"><g id="图层_1-2" data-name="图层 1"><path class="cls-1" d="M57.44,25.16C48.76,23,51.61,20.84,48,17.6c-5.15-4.58-7.71,3.19-7.71,3.19L35.09,37.94A9.67,9.67,0,0,0,31.54,34,9.24,9.24,0,1,0,21.76,49.7a9.37,9.37,0,0,0,13-2.79l.2-.34.1-.09c1.14-1.27,8.53-21.79,8.53-21.79s2.76,4.77,7.06,4.62c4.95-.17,7.12-4.08,6.83-4.15Z"/><circle class="cls-2" cx="34.13" cy="34.13" r="33.13"/><line class="cls-2" x1="15.1" y1="5.69" x2="54.28" y2="59.62"/></g></g></svg>