<svg xmlns="http://www.w3.org/2000/svg" viewBox="0 0 35.07 307.76"><defs><style>.cls-1{fill:#d68f8f;}</style></defs><title>资源 1</title><g id="图层_2" data-name="图层 2"><g id="图层_1-2" data-name="图层 1"><path class="cls-1" d="M6.72,33.89,5.51,31.23C7,30.74,7,30.24,7,29.52V16.91H.57V14.44H7V0H9.5V14.44H34.69v2.47h-16c3,6.53,7.6,10.14,16.22,13.22l-1.33,2.39c-9.15-3.42-14.24-7.94-17.74-15.61H9.5V29.79l9.76-3.46,0,2.74C17.74,29.6,10.9,32.11,6.72,33.89Zm6.12-22-.95-2.35A92.59,92.59,0,0,0,29.94,1.1l1.18,2.36A102,102,0,0,1,12.84,11.93Z"/><path class="cls-1" d="M8.24,98.23h4.07v2.32H8.24V107l3-1.25.53,2.32-3.54,1.4v11.17c0,3-1.1,3.65-4.17,3.65H.91L.42,122h3c1.94,0,2.47-.38,2.47-2.09v-9.49L.61,112.55,0,110.24c1.48-.54,3.64-1.37,5.85-2.25v-7.44h-5V98.23H5.89V91.39H8.24Zm15.62,21.16c-2.93,2.28-7,4.07-12.69,5.93l-1.06-2.43c5.05-1.48,8.7-3,11.39-4.87-2.58-1.48-5.05-2.85-7.21-3.91.87-1.75,1.74-3.8,2.54-5.93H12.35v-2.24h5.32c.72-2.13,1.4-4.25,1.9-6.11l2.5.53c-.53,1.75-1.14,3.68-1.82,5.58H35.07v2.24H30.36a19.11,19.11,0,0,1-4.6,9.5c2.85,1.6,5.78,3.38,8.55,5.13L32.79,125C30,123.15,26.94,121.22,23.86,119.39ZM13.49,95.68h9.08c-.61-1.44-1.64-3.83-2-4.52l2.51-.64c.34.72,1.75,3.83,2.32,5.16h7.79v6.84H30.85V97.89h-15v4.63H13.49Zm10,20.71a16.4,16.4,0,0,0,4.37-8.21h-8.4c-.68,1.83-1.4,3.54-2.09,4.94C19.11,114,21.2,115.14,23.48,116.39Z"/><path class="cls-1" d="M2.81,184.22H32.56V216.6H30.28v-2.28H5.09v2.28H2.81Zm2.28,27.93H30.28V186.39H5.09Zm12.58-13.83a64,64,0,0,1-11,4.1l-.8-1.86a62.3,62.3,0,0,0,9.8-3.38,24.07,24.07,0,0,1-4.63-3.72,35,35,0,0,1-3.54,3.11l-1.14-1.44a34.63,34.63,0,0,0,7.26-8.21l1.86.72a20.73,20.73,0,0,1-1.86,2.78H26.06v1.71a32,32,0,0,1-6.46,5.13,51.74,51.74,0,0,0,9.92,2.92l-.8,2A53.65,53.65,0,0,1,17.67,198.32Zm-8.59,9.19.27-1.78C13,206.41,20.78,208,25,208.84l-.34,1.79C20.59,209.79,12.8,208.2,9.08,207.51Zm2.81-4.71.27-1.74,11.09,2.31L23,205.16C19.87,204.48,14.82,203.37,11.89,202.8Zm5.66-6.53a22.32,22.32,0,0,0,5.59-4.14H12.23A21.51,21.51,0,0,0,17.55,196.27Z"/><path class="cls-1" d="M19,285.64v4h16v2H18.77l-.15.15a19.74,19.74,0,0,0,3.76,5.77c2.89-1.52,6.08-3.41,8.09-4.74l1.37,2c-2,1.18-5.13,3-7.71,4.37,2.62,2.09,6,3.57,10.86,4.9l-1,2.21c-9.27-2.93-13.83-6.39-17.1-12.85a43.09,43.09,0,0,1-4.26,3.42v7.72l8.51-3,.31,2.32c-1.75.49-7.52,2.2-11.74,3.84l-.88-1.83c1.41-.76,1.41-1.48,1.41-2v-5.55A66.12,66.12,0,0,1,1.06,303L0,300.73c6.53-2.55,11.32-5.28,15.58-9.08H.53v-2h16v-4H3.57v-2.12H16.49V279.6H2v-2.09H16.49v-4H19v4H33.43v2.09H19v3.92H31.88v2.12Z"/></g></g></svg>