<svg xmlns="http://www.w3.org/2000/svg" viewBox="0 0 240.52 72.43"><defs><style>.cls-1{fill:none;stroke:#c62a2a;stroke-miterlimit:10;stroke-width:2px;}.cls-2{fill:#c62a2a;}.cls-3{fill:#fff;}</style></defs><title>资源 13</title><g id="图层_2" data-name="图层 2"><g id="图层_7" data-name="图层 7"><rect class="cls-1" x="11.85" y="10.21" width="227.67" height="61.21"/><rect class="cls-2" width="227.67" height="61.21"/><path class="cls-3" d="M83.86,11l-.72,2.72c-.24.92-.52,1.83-.85,2.73H92.46v4.63a50.43,50.43,0,0,1-2.25,8.64,43.66,43.66,0,0,1-3.6,7.56,49.08,49.08,0,0,1-5.13,7,86.22,86.22,0,0,1-6.89,6.95l-3.28-3.91A70.92,70.92,0,0,0,78,41a43.56,43.56,0,0,0,4.72-6.21,35.84,35.84,0,0,0,3.22-6.55A53.52,53.52,0,0,0,88,20.89H80.62q-1.22,2.84-2.56,5.53c1,.6,1.93,1.25,2.9,2s1.9,1.43,2.77,2.18l-2.12,4.32c-1-.87-2-1.66-2.88-2.38s-1.89-1.44-2.88-2.16c-.45.78-.91,1.55-1.39,2.31s-1,1.5-1.49,2.19l-3.15-3.69c1-1.53,2-3.15,2.93-4.84S74.6,22.86,75.43,21s1.57-3.66,2.25-5.53a55.62,55.62,0,0,0,1.68-5.6Zm24.57,23.81q-2.61-2.43-4.74-4.26T99.21,27V50.63H94.93V10.13l4.28.18V24.49l1.48-2q2.75,2,5.13,3.87t5,4.09Z"/><path class="cls-3" d="M141.42,40.55a1,1,0,0,1-.18.36c1.17.42,2.42.89,3.76,1.4l4,1.53c1.3.51,2.54,1,3.71,1.5s2.17.94,3,1.33l-1.57,4.14c-1-.48-2.15-1-3.49-1.6s-2.71-1.17-4.12-1.75-2.8-1.15-4.18-1.69l-3.69-1.44a21.15,21.15,0,0,1-7.25,4.07,78.64,78.64,0,0,1-11.74,3L118.42,47q3.78-.63,6.69-1.3a40.57,40.57,0,0,0,5-1.47,21,21,0,0,0,3.6-1.68,9.71,9.71,0,0,0,2.43-2H117.39V36.82h12.42l-1.87-1.17c-.67-.42-1.36-.84-2.07-1.24s-1.39-.8-2.07-1.17-1.3-.7-1.87-1l2-3.28,2.28,1.23c.85.47,1.71,1,2.56,1.44l2.45,1.42c.78.45,1.43.84,1.94,1.17l-1.22,2.57H138a14.11,14.11,0,0,0,.48-2.73c.07-1,.14-2,.2-3.17,0-.3.05-.67.07-1.12s0-.92.06-1.4.06-1,.07-1.44,0-.9,0-1.26l4.55.23-.18,5.58c-.06,1-.14,1.92-.23,2.81a20.42,20.42,0,0,1-.4,2.5h13.95v3.73Zm-14.27-15.7h-8V21H135V17.33h-14V13.51h14V9.86l4.32.18v3.47H153.7v3.82H139.35V21h16v3.83l-3.92,6.61L147.67,30l3.24-5.17H128.59c.6.27,1.26.58,2,.94l2.12,1.1c.7.38,1.38.75,2,1.13s1.25.73,1.76,1.06l-1.71,3.55c-.54-.36-1.2-.79-2-1.28s-1.6-1-2.45-1.49-1.69-1-2.5-1.39-1.5-.77-2.07-1Z"/></g></g></svg>