<svg xmlns="http://www.w3.org/2000/svg" viewBox="0 0 240.52 72.43"><defs><style>.cls-1{fill:none;stroke:#c62a2a;stroke-miterlimit:10;stroke-width:2px;}.cls-2{fill:#c62a2a;}.cls-3{fill:#fff;}</style></defs><title>资源 11</title><g id="图层_2" data-name="图层 2"><g id="图层_7" data-name="图层 7"><rect class="cls-1" x="11.85" y="10.21" width="227.67" height="61.21"/><rect class="cls-2" width="227.67" height="61.21"/><path class="cls-3" d="M62.49,36.45q-1.58-.59-3.15-1.23c-1.05-.44-2.09-.9-3.11-1.38v6.57l1.35-.76,1.71,2.74c-1,.57-2,1.14-3,1.69s-2.1,1.09-3.12,1.6c1.56.42,3,.82,4.23,1.19s2.22.68,2.88.92l-.63,3.47c-.6-.24-1.47-.55-2.61-.92s-2.42-.78-3.83-1.22L48.7,47.75c-1.58-.48-3.1-.93-4.57-1.35L44,48.65l-2.25.29-3.17.45c-1.12.17-2.21.35-3.26.54l-2.48.47-1.57.41q-.68.18-1.44.45l-1.13-3.51a3,3,0,0,0,1.15-.68,1.53,1.53,0,0,0,.25-.94V34.29c-.9.42-1.82.82-2.75,1.2s-1.87.74-2.83,1.1L23.07,32.9a77.64,77.64,0,0,0,11.25-4.68,30.87,30.87,0,0,0,7.74-5.49H45a15.82,15.82,0,0,0,2.12,1.84l-1.26-2.79a35.43,35.43,0,0,0,3.42-1.26c-.84-.54-1.64-1-2.39-1.5l-2-1.24,1.71-2.52c.81.42,1.75.92,2.83,1.51S51.6,18,52.77,18.68A21.09,21.09,0,0,0,57,15.08H45.34V11.57H61.41v3.78c-.75,1-1.56,1.88-2.41,2.77a22.25,22.25,0,0,1-2.9,2.49l3.28,2c1,.64,2,1.22,2.79,1.73L60.55,28c-.93-.69-2.08-1.5-3.46-2.43s-2.82-1.88-4.32-2.84c-.78.42-1.6.82-2.45,1.2s-1.78.72-2.77,1.05a39.45,39.45,0,0,0,7.27,4.26,84.73,84.73,0,0,0,9,3.48ZM27.61,21.11l-.9,1c-.3.33-.61.64-.94.94l-2.25-2.38a25.64,25.64,0,0,0,3.22-3.47,23.9,23.9,0,0,0,2.36-3.87L32,14.94l-.34.61a4.64,4.64,0,0,1-.38.61h2V9.63L37,9.81v1.94h7.11v2.79H37v1.62h6v3.55a37.17,37.17,0,0,1-6.71,5.11A59.32,59.32,0,0,1,25.54,30l-1.39-3.6q2.12-.77,3.87-1.44c1.17-.45,2.26-.9,3.28-1.35q-.81-.63-1.8-1.26Zm4.23,2.2A28.7,28.7,0,0,0,38.68,19H29.86c.57.33,1.13.67,1.67,1A17,17,0,0,1,33.1,21.2ZM34.5,34.2v1.58H52.09V34.2Zm0,5.45H52.09V38.07H34.5Zm0,6.93c.78-.09,1.8-.23,3.08-.43l3.71-.56c-1-.27-1.83-.5-2.61-.7l-1.89-.47.9-2.39H34.5ZM51.91,31.73Q49.35,30.34,47.19,29a32.25,32.25,0,0,1-3.69-2.68A39.18,39.18,0,0,1,39.88,29q-2.1,1.39-4.62,2.75H42.1l-.45-1.53-.45-1.53,3.15-.54c.18.51.38,1.08.59,1.71s.39,1.26.54,1.89ZM48.67,44.42c.75-.33,1.52-.71,2.32-1.13L53.35,42H39.27c1.14.27,2.54.62,4.2,1S46.87,43.94,48.67,44.42Z"/><path class="cls-3" d="M77.65,20a73.42,73.42,0,0,1-4.45,9.86l-3.33-2.93A72.82,72.82,0,0,0,73.49,19a60.81,60.81,0,0,0,2.77-9.2l4,.63c-.21,1-.42,1.87-.63,2.74s-.44,1.74-.68,2.61h8V19.8l-3.19,8.33-3.29-1.22L83.19,20Zm8.78,22.19c-.27.24-.72.59-1.33,1.06l-2,1.5c-.72.54-1.44,1.08-2.16,1.6l-1.8,1.33c-.33.24-.66.49-1,.76s-.66.57-1,.9l-2.39-3.64a3.68,3.68,0,0,0,1.15-1.49,6.09,6.09,0,0,0,.25-1.89v-18l4,.18V41.67q.45-.31,1.14-.9l1.44-1.19c.5-.4,1-.79,1.4-1.15s.77-.63,1-.81ZM98.76,29.61a22.45,22.45,0,0,0,4,9.57A33.2,33.2,0,0,0,111.13,47l-3,3.73a37.7,37.7,0,0,1-6.55-6.07,28,28,0,0,1-4.48-7.29A27.2,27.2,0,0,1,93,44.58a39.62,39.62,0,0,1-7,6.72l-3.11-3.69a37,37,0,0,0,5.42-4.47,22.66,22.66,0,0,0,3.63-4.77,19.74,19.74,0,0,0,2-5.27,30.92,30.92,0,0,0,.72-6c0-.21,0-.53,0-1s0-.9,0-1.38V22.46l4.27.18c0,.18,0,.46,0,.85s0,.81,0,1.26,0,.89,0,1.31v1A22.84,22.84,0,0,1,98.76,29.61Zm-13.23-2.2a45.48,45.48,0,0,0,4.07-8.28,77.76,77.76,0,0,0,2.81-9.45l4,.85q-.36,1.44-.72,2.79c-.24.9-.48,1.79-.72,2.66h14V20.3l-3.87,8.82-3.64-1.49,3.28-7.24H93.54q-.9,2.47-2,4.79a51.7,51.7,0,0,1-2.45,4.57Z"/><path class="cls-3" d="M147.18,18c-.21.69-.45,1.43-.72,2.23l-.81,2.36h8.19V45.27a9.31,9.31,0,0,1-.27,2.48,2.83,2.83,0,0,1-.95,1.48,4.23,4.23,0,0,1-1.75.79,19,19,0,0,1-2.7.38l-2.84.27L144,46.85l3.15-.32a11,11,0,0,0,1.3-.2,1.51,1.51,0,0,0,.77-.38,1.37,1.37,0,0,0,.36-.72A6.54,6.54,0,0,0,149.7,44V26.37h-25v7.38c.66-.51,1.37-1.08,2.12-1.71s1.47-1.26,2.18-1.89,1.37-1.26,2-1.89,1.17-1.2,1.62-1.71l2.79,2.7c-.54.6-1.18,1.26-1.93,2s-1.55,1.43-2.39,2.18h12.56c-.81-.78-1.64-1.53-2.48-2.25s-1.56-1.32-2.16-1.8l2.79-2.74c.57.45,1.24,1,2,1.64s1.53,1.3,2.28,2,1.44,1.29,2.09,1.89,1.15,1.08,1.51,1.44l-2.25,3.55c-.27-.27-.6-.6-1-1s-.79-.79-1.24-1.21v11H128.86V35.28l-2.25,1.85-1.89-2.43V50.18h-4.14V22.55h8L127.47,18H118V13.91h17.14c-.18-.6-.37-1.2-.58-1.8s-.39-1.14-.54-1.62l4.63-.63q.32.86.63,1.89c.21.69.44,1.41.68,2.16h16.24V18Zm-6.26,4.59.81-2.21c.3-.81.57-1.6.81-2.38H132c.18.72.36,1.49.56,2.32s.37,1.58.52,2.27Zm-8.19,19.53h8.64V37.22h-8.64Z"/><path class="cls-3" d="M200.73,33.21H173a54.73,54.73,0,0,1-.65,5.49,28.75,28.75,0,0,1-1.17,4.46,28.28,28.28,0,0,1-1.78,4q-1,1.89-2.38,4l-4.23-2.47q1.62-2.3,2.74-4.25a20.32,20.32,0,0,0,1.82-4.26,26.59,26.59,0,0,0,1-5.19,70.24,70.24,0,0,0,.3-7.05V15.48h13.9l-.7-2.27c-.22-.73-.48-1.49-.78-2.27l4.9-.9c.36.93.69,1.81,1,2.63s.62,1.76,1,2.81h12.87Zm-4.55-13.54h-23v9.22h23Z"/></g></g></svg>