<svg xmlns="http://www.w3.org/2000/svg" viewBox="0 0 240.52 72.43"><defs><style>.cls-1{fill:none;stroke:#c62a2a;stroke-miterlimit:10;stroke-width:2px;}.cls-2{fill:#c62a2a;}.cls-3{fill:#fff;}</style></defs><title>资源 12</title><g id="图层_2" data-name="图层 2"><g id="图层_7" data-name="图层 7"><rect class="cls-1" x="11.85" y="10.21" width="227.67" height="61.21"/><rect class="cls-2" width="227.67" height="61.21"/><path class="cls-3" d="M62.49,36.46c-1.05-.39-2.1-.81-3.15-1.24s-2.09-.89-3.11-1.38v6.58l1.35-.77,1.71,2.74c-1,.57-2,1.14-3,1.69s-2.11,1.09-3.13,1.6c1.56.42,3,.82,4.23,1.19s2.22.68,2.88.93l-.63,3.46c-.6-.24-1.47-.55-2.61-.92s-2.42-.78-3.83-1.22L48.7,47.75c-1.58-.48-3.1-.93-4.57-1.35L44,48.65l-2.25.29-3.17.45c-1.12.17-2.21.35-3.26.54l-2.48.47-1.57.41q-.68.18-1.44.45l-1.13-3.51a3,3,0,0,0,1.15-.67,1.52,1.52,0,0,0,.25-.95V34.3c-.9.41-1.82.81-2.75,1.19s-1.87.74-2.83,1.1L23.07,32.9a77.64,77.64,0,0,0,11.25-4.68,30.87,30.87,0,0,0,7.74-5.49H45a16.63,16.63,0,0,0,2.12,1.85l-1.26-2.79a32.81,32.81,0,0,0,3.42-1.27c-.84-.54-1.64-1-2.39-1.5l-2-1.24,1.71-2.52c.81.42,1.75.92,2.83,1.51S51.6,18,52.77,18.68A21.09,21.09,0,0,0,57,15.08H45.34V11.57H61.41v3.78A34.88,34.88,0,0,1,59,18.12a20.91,20.91,0,0,1-2.9,2.49l3.28,2c1,.64,2,1.22,2.79,1.73L60.55,28c-.93-.69-2.08-1.5-3.46-2.43s-2.82-1.87-4.32-2.84c-.78.43-1.6.82-2.45,1.2s-1.78.72-2.77,1.05a38.9,38.9,0,0,0,7.27,4.26,82.62,82.62,0,0,0,9,3.48ZM27.61,21.11l-.9,1c-.3.33-.61.65-.94.95l-2.25-2.39a25.64,25.64,0,0,0,3.22-3.47,23.8,23.8,0,0,0,2.36-3.86L32,14.94l-.33.61a6.17,6.17,0,0,1-.39.61h2V9.63L37,9.81v1.94h7.11v2.79H37v1.62h6v3.55a36.72,36.72,0,0,1-6.71,5.11A59.32,59.32,0,0,1,25.54,30l-1.39-3.59c1.41-.51,2.7-1,3.87-1.45s2.26-.89,3.28-1.34q-.81-.63-1.8-1.26Zm4.23,2.2A28.7,28.7,0,0,0,38.68,19H29.86c.57.33,1.13.67,1.67,1A17,17,0,0,1,33.1,21.2Zm2.66,10.9v1.57H52.09V34.21Zm0,5.44H52.09V38.08H34.5Zm0,6.93c.78-.09,1.81-.23,3.08-.43l3.71-.56c-1-.27-1.83-.5-2.61-.7l-1.89-.47.9-2.38H34.5ZM51.91,31.73Q49.35,30.34,47.19,29a32.27,32.27,0,0,1-3.69-2.67A37.48,37.48,0,0,1,39.88,29c-1.4.94-2.94,1.85-4.62,2.75H42.1l-.45-1.53-.45-1.53,3.15-.54c.18.51.38,1.08.59,1.71s.39,1.26.54,1.89ZM48.67,44.42c.75-.33,1.53-.71,2.32-1.12L53.35,42H39.27c1.14.26,2.54.61,4.21,1S46.87,43.94,48.67,44.42Z"/><path class="cls-3" d="M77.65,20a72.86,72.86,0,0,1-4.45,9.86l-3.33-2.92a71.17,71.17,0,0,0,3.62-8,59.69,59.69,0,0,0,2.77-9.2l4,.63c-.21,1-.42,1.88-.63,2.74s-.44,1.74-.68,2.61h8V19.8l-3.19,8.33-3.29-1.21L83.19,20Zm8.78,22.19c-.27.24-.71.59-1.33,1.06l-2,1.5c-.72.54-1.44,1.08-2.16,1.6l-1.8,1.33c-.33.24-.66.49-1,.76a11.7,11.7,0,0,0-1,.91l-2.39-3.65a3.59,3.59,0,0,0,1.15-1.49,5.76,5.76,0,0,0,.25-1.89v-18l4,.18V41.67c.3-.21.68-.5,1.15-.9l1.44-1.19c.49-.4,1-.78,1.39-1.15s.77-.63,1-.8ZM98.76,29.61a22.52,22.52,0,0,0,4,9.57A33.37,33.37,0,0,0,111.13,47l-3,3.73a37.7,37.7,0,0,1-6.55-6.07,28.3,28.3,0,0,1-4.48-7.29A27.44,27.44,0,0,1,93,44.58a40.06,40.06,0,0,1-7,6.72l-3.11-3.69a37,37,0,0,0,5.43-4.47,23,23,0,0,0,3.62-4.77,19.74,19.74,0,0,0,2-5.27,30.92,30.92,0,0,0,.72-6q0-.32,0-1c0-.44,0-.89,0-1.38V22.46l4.27.18c0,.18,0,.47,0,.86s0,.8,0,1.25,0,.89,0,1.31v1A22.84,22.84,0,0,1,98.76,29.61Zm-13.23-2.2a44.84,44.84,0,0,0,4.07-8.28,76,76,0,0,0,2.81-9.45l4,.86c-.24,1-.48,1.88-.72,2.79S95.26,15.11,95,16h14V20.3l-3.87,8.82-3.64-1.49,3.28-7.24H93.54q-.9,2.47-2,4.79t-2.46,4.57Z"/><path class="cls-3" d="M125,30.83a23.43,23.43,0,0,0-1.8-1.78c-.69-.61-1.4-1.22-2.12-1.82s-1.44-1.16-2.16-1.69l-2-1.41,2.52-3.56,1.89,1.28c.72.5,1.45,1,2.19,1.6s1.44,1.14,2.13,1.71,1.29,1.09,1.8,1.57Zm-6.62,18.09c.18-.45.42-1.1.72-1.94s.62-1.76,1-2.76.67-2.06,1-3.15.67-2.15,1-3.15.56-1.92.79-2.75.39-1.47.51-2l4.28,1.44c-.12.45-.29,1.09-.52,1.92s-.49,1.75-.79,2.77-.62,2.07-1,3.17-.68,2.15-1,3.17-.62,1.93-.9,2.74-.52,1.44-.7,1.89Zm2.88-38c.63.36,1.31.78,2,1.26s1.44,1,2.16,1.48,1.42,1,2.11,1.58,1.31,1,1.85,1.53l-2.34,4c-.51-.48-1.12-1-1.82-1.63s-1.44-1.18-2.19-1.75-1.47-1.12-2.18-1.64-1.33-1-1.87-1.33Zm14.09,10.53c-.39-.6-.85-1.24-1.37-1.91s-1.08-1.35-1.65-2-1.14-1.32-1.73-2S129.52,14.4,129,14L132,11c.51.51,1.06,1.07,1.65,1.69s1.17,1.25,1.75,1.91l1.69,1.91c.54.62,1,1.17,1.35,1.64Zm9.09.54h9.67V45.27a9.56,9.56,0,0,1-.27,2.53,3,3,0,0,1-.94,1.5,4,4,0,0,1-1.78.81,24.11,24.11,0,0,1-2.77.43l-2.52.27-1.44-4.37,2.61-.27a10.46,10.46,0,0,0,1.38-.2,1.66,1.66,0,0,0,.78-.34,1.06,1.06,0,0,0,.36-.65,5.69,5.69,0,0,0,.09-1.14V42H134.76v8.23h-4.5V22H140V9.86l4.46.18Zm5.17,4.18H134.76V30h14.89Zm0,11.84v-4H134.76v4Zm5.72-24c-.45.6-1,1.23-1.49,1.88s-1.1,1.33-1.68,2l-1.74,1.95c-.57.63-1.09,1.19-1.57,1.67l-3.11-2.84q.76-.76,1.62-1.71c.57-.63,1.14-1.27,1.71-1.93s1.11-1.32,1.62-2,1-1.27,1.4-1.85Z"/><path class="cls-3" d="M164.28,33.8a47.59,47.59,0,0,0,6.79-2.21,10.66,10.66,0,0,0,3.74-2.47h-8.46l1-9.45h9.27V17.15H166.48V13.68h10.13V10l4.27.18v3.46h5.85V10l4.1.18v3.46h9.4v9.45h-9.4v2.52H202l-.36,4.5a2.68,2.68,0,0,1-1.13,2.14,7.29,7.29,0,0,1-3.28.84l-1.94.13-1.08-2.75,1.44-.09c.42,0,.76-.05,1-.08a2,2,0,0,0,.6-.16.87.87,0,0,0,.32-.25,1.63,1.63,0,0,0,.18-.41,3.28,3.28,0,0,0,.09-.4h-7v3.73h-4.1V29.12H180a9.43,9.43,0,0,1-3.69,4.18h21.29V43.92h-4.37V36.81H174.13V44h-4.41V36.36c-.45.19-.92.36-1.41.52l-1.51.52ZM186,40a8.74,8.74,0,0,1-1.42,4,10.06,10.06,0,0,1-3.44,3,29.94,29.94,0,0,1-5.81,2.39q-3.51,1.08-8.46,2.11l-2.2-4.14a72.16,72.16,0,0,0,7.9-1.8,32,32,0,0,0,5-1.89,8.17,8.17,0,0,0,2.63-1.87A3.37,3.37,0,0,0,181,40c.06-.27.12-.64.18-1.12s.12-.88.18-1.21l4.9.17Zm-9.54-14.31a14.61,14.61,0,0,0,.18-2.47v-.05h-5.49l-.32,2.52Zm10.3-2.52h-5.85c0,.46,0,.89,0,1.31s0,.83-.07,1.21h5.94Zm-5.85-3.46h5.85V17.15h-5.85Zm5.36,22.63c2.85.75,5.53,1.53,8,2.32s5.07,1.7,7.65,2.72L200.5,51.8q-3.83-1.71-7.74-3.22t-8-2.81Zm4.59-25.15v2.52h5.31V17.15Z"/></g></g></svg>