<svg xmlns="http://www.w3.org/2000/svg" viewBox="0 0 240.4 72.43"><defs><style>.cls-1{fill:none;stroke:#c62a2a;stroke-miterlimit:10;stroke-width:2px;}.cls-2{fill:#c62a2a;}.cls-3{fill:#fff;}</style></defs><title>资源 14</title><g id="图层_2" data-name="图层 2"><g id="图层_7" data-name="图层 7"><rect class="cls-1" x="11.73" y="10.21" width="227.67" height="61.21"/><rect class="cls-2" width="227.67" height="61.21"/><path class="cls-3" d="M109.56,46.35v3.78H71.63V46.35H88.32V42.48H75.54V38.61H88.32V35.33H77.56V24.66h26.15V35.33h-11v3.28h13v3.87h-13v3.87ZM77,27.36H72.75v-9.9h7.69c-.75-.87-1.5-1.71-2.27-2.52s-1.45-1.5-2-2.07L79.18,10c.37.36.76.76,1.2,1.21l1.33,1.42,1.35,1.51c.45.51.87,1,1.25,1.44l-1.62,1.93H88.5V10l4.36.18v7.29h5.58l-1.8-1.53c.37-.36.79-.8,1.29-1.32s1-1.07,1.48-1.62,1-1.1,1.4-1.62.79-1,1-1.33l3.24,2.52c-.54.69-1.19,1.48-1.95,2.38s-1.51,1.74-2.23,2.52h7.65v9.9H104.3V21.6H77Zm4.82,4.32H99.26V28.31H81.84Z"/><path class="cls-3" d="M155.64,26.33q-1.48-.63-3-1.35c-1-.48-2-1-2.93-1.53V37.62l1.08-.76,2,3.1c-1,.63-2,1.29-3.2,2s-2.35,1.34-3.55,1.94q2.39.9,4.41,1.69T153.93,47l-1,4.05c-.81-.39-1.82-.84-3-1.37s-2.54-1.08-4-1.66-2.91-1.17-4.46-1.76L137,44.55l.09,3.33c-.39.06-1,.2-1.93.41l-2.93.7-3.1.76c-1,.26-1.83.47-2.43.65s-1.2.33-1.8.54-1.19.44-1.76.68l-1.53-3.92a4.39,4.39,0,0,0,1.24-1.26,2.14,2.14,0,0,0,.25-1V24c-.84.45-1.7.88-2.57,1.3l-2.61,1.26-1.66-4.23a62.8,62.8,0,0,0,10.93-5.82,35.78,35.78,0,0,0,7.83-7h3.69a35.87,35.87,0,0,0,7.74,6.88,59.1,59.1,0,0,0,10.8,5.72Zm-7.34-3.69a60.81,60.81,0,0,1-6.57-4.34,32.23,32.23,0,0,1-4.86-4.48A33.29,33.29,0,0,1,132,18.23a65.94,65.94,0,0,1-6.64,4.41h9.9L134,18.23l3.74-.72c.24.69.5,1.5.79,2.43s.54,1.83.78,2.7Zm-20.83,3.55V29h17.82V26.19Zm0,9.05h17.82V32.45H127.47Zm0,10.8,1.66-.43,2.1-.52,2.2-.54c.74-.18,1.42-.36,2-.54-1.2-.42-2.3-.79-3.31-1.12s-1.87-.6-2.59-.81l1.35-3.24h-3.46Zm14.13-3.83c1-.48,2-1,3.08-1.57s2.11-1.17,3.13-1.8H131.47c1.17.33,2.66.79,4.46,1.39S139.62,41.49,141.6,42.21Z"/></g></g></svg>