<svg xmlns="http://www.w3.org/2000/svg" viewBox="0 0 38.41 38.41"><defs><style>.cls-1{fill:#c9b99f;}.cls-2{fill:#c62a2a;}</style></defs><title>资源 2</title><g id="图层_2" data-name="图层 2"><g id="图层_1-2" data-name="图层 1"><circle class="cls-1" cx="19.2" cy="19.2" r="19.2"/><path class="cls-2" d="M28.56,20.64H20.7V28.5a1.24,1.24,0,0,1-1.23,1.25H19a1.25,1.25,0,0,1-1.26-1.25l0-7.87H9.89A1.25,1.25,0,0,1,8.64,19.4v-.48a1.26,1.26,0,0,1,1.25-1.26l7.82,0V9.83A1.25,1.25,0,0,1,19,8.58h.5A1.25,1.25,0,0,1,20.7,9.83v7.81h7.86a1.24,1.24,0,0,1,1.25,1.24v.51A1.25,1.25,0,0,1,28.56,20.64Z"/></g></g></svg>