<svg xmlns="http://www.w3.org/2000/svg" viewBox="0 0 135.71 62.21"><defs><style>.cls-1{fill:#c62a2a;}</style></defs><title>资源 10</title><g id="图层_2" data-name="图层 2"><g id="图层_7" data-name="图层 7"><path class="cls-1" d="M57.8,39.77c-1.35-.53-2.71-1.09-4.06-1.68s-2.68-1.18-4-1.81L48.35,46.36l1.11-.54c.37-.18.71-.36,1-.54l1.6,4q-2.18,1.06-4.51,2.18t-4.62,2l6,1.81c1.76.54,3.05,1,3.85,1.28l-2.14,5.24-4-1.38c-1.76-.6-3.7-1.25-5.84-1.94L34.18,56.3q-3.46-1.14-6.61-2.15l-.82,3.9c-.72,0-1.7.14-2.93.3s-2.55.35-3.94.57-2.84.47-4.31.74l-4,.74c-1.11.22-2.09.44-2.94.64a22.48,22.48,0,0,0-2.28.64l-.79-6.32a4.06,4.06,0,0,0,1.66-1,3.08,3.08,0,0,0,.5-1.44l2.25-16C7.35,38,4.65,39.06,1.87,40L0,33.73a157.77,157.77,0,0,0,17.79-6.62,49.2,49.2,0,0,0,12.52-7.76h5a19,19,0,0,0,2.77,2.75l-1.56-5.17c1.36-.4,2.6-.83,3.74-1.28-.94-.62-1.8-1.21-2.57-1.74s-1.52-1-2.21-1.48L38.6,8.6H36.72l.91-6.45H62.49L61.53,9a46.88,46.88,0,0,1-3.91,3.63C56.23,13.8,54.68,15,53,16.12c1.48.95,2.91,1.86,4.28,2.76s2.59,1.72,3.65,2.49l-4.47,6q-1.8-1.47-4.52-3.46c-1.81-1.32-3.71-2.65-5.72-4-1.1.49-2.25,1-3.46,1.48s-2.5,1-3.86,1.41a48,48,0,0,0,9.83,5.81A114.93,114.93,0,0,0,61.2,33.32ZM9.67,17.54C8.88,18.39,8,19.26,7,20.16L3.17,15.92a40.82,40.82,0,0,0,5.05-5.07,40.29,40.29,0,0,0,3.86-5.68l5.25,2.76L16.48,9.2H18.3L19.59,0l7.06.4-.29,2.09H36l-.7,5H25.66L25.42,9.2H34l-.88,6.25Q31.18,17,28.54,18.78t-6.1,3.69c-2.3,1.28-4.86,2.56-7.66,3.83S8.91,28.8,5.57,30L3.3,23.65c2-.63,3.75-1.22,5.36-1.78s3.09-1.13,4.47-1.71c-.57-.45-1.14-.9-1.73-1.35S10.24,17.94,9.67,17.54Zm9.54,0c1.06-.54,2.05-1.08,3-1.62s1.88-1.09,2.85-1.68H14.5c.82.54,1.63,1.1,2.45,1.68ZM15.4,54.69,20.1,54c1.62-.24,3.23-.48,4.83-.7-1.37-.4-2.59-.77-3.64-1.11l-2.53-.84,1.42-3H16.29Zm1.47-10.48H41.12l.26-1.82H17.12Zm1.05-7.46-.27,1.88H41.91l.26-1.88Zm24.33-4.37c-2.21-1.21-4.19-2.39-6-3.56a44.28,44.28,0,0,1-4.44-3.29q-2.23,1.54-5.27,3.29c-2,1.17-4.26,2.35-6.71,3.56H27.8l-.33-3.83L34,28.22l.23,4.16Zm-5.4,19.29c1.19-.5,2.4-1,3.65-1.58S43,49,44.23,48.37H25.42c1.63.5,3.43,1,5.39,1.55S34.79,51,36.85,51.67Zm4-43.07c1,.54,2,1.14,3.11,1.81s2.26,1.39,3.46,2.15a50.16,50.16,0,0,0,5.93-4Z"/><path class="cls-1" d="M96.13,48.64c-.49.32-1.22.8-2.18,1.45l-3.27,2.18L87,54.76Q85.08,56,83.46,57c-.45.31-.87.62-1.27.91s-.8.61-1.21,1L77.49,52.2a5.19,5.19,0,0,0,1.87-2.28A14.78,14.78,0,0,0,80,47l3.22-22.91c-1.45,2.38-3,4.77-4.71,7.19l-5.07-5c1.07-1.61,2.23-3.44,3.45-5.48s2.45-4.17,3.66-6.41S82.94,9.84,84,7.49,86,2.84,86.76.6l7.37,1.08c-.44,1.21-.87,2.38-1.3,3.53s-.9,2.27-1.42,3.39H102.9l-1.07,7.59-6.2,11.63L90.85,26,88.17,45.08c1-.67,2.13-1.49,3.43-2.45s2.45-1.78,3.44-2.45ZM91.36,22.37l0,.14,3.27-6.05h-7c-.49.9-1,1.8-1.49,2.72s-1,1.83-1.56,2.72Zm26.13,8.13a28.23,28.23,0,0,0,4.23,13.17,40.82,40.82,0,0,0,10.52,10.95l-6.48,6.92a50.91,50.91,0,0,1-7.94-8.29,36.52,36.52,0,0,1-5.3-9.85,49.93,49.93,0,0,1-7.24,9.68,68,68,0,0,1-10.92,9.13l-4.89-6.78a57.78,57.78,0,0,0,8.74-6.32,37.59,37.59,0,0,0,6.07-6.82,33,33,0,0,0,3.89-7.62A47.39,47.39,0,0,0,110.33,26c0-.31.12-.77.23-1.38s.22-1.24.34-1.91.21-1.31.3-1.92.15-1.1.21-1.51l7.92.54c0,.31-.11.73-.21,1.24s-.19,1.06-.29,1.61-.19,1.14-.28,1.72-.15,1.12-.22,1.61Q118,28.28,117.49,30.5ZM97.37,26a74.88,74.88,0,0,0,7.35-12Q107.87,7.66,110.64.4L118.08,2c-.48,1.21-.94,2.38-1.37,3.52s-.9,2.3-1.43,3.47h20.43l-1.12,7.92-7.51,12.37-6.6-2.76,6.16-9.4H111.52a88.12,88.12,0,0,1-8.17,13.23Z"/></g></g></svg>