<svg xmlns="http://www.w3.org/2000/svg" viewBox="0 0 158.81 61.48"><defs><style>.cls-1{fill:#c62a2a;}</style></defs><title>资源 7</title><g id="图层_2" data-name="图层 2"><g id="图层_7" data-name="图层 7"><path class="cls-1" d="M62.64.2h0a14.21,14.21,0,0,0-3.15.35A14.09,14.09,0,0,0,49,11.89,13.6,13.6,0,0,0,48.82,14V47.18a13.44,13.44,0,0,0,1.39,6,7.25,7.25,0,0,0,5.72,2.91,8.86,8.86,0,0,0,2.62-.41l.06,0,.22-.09a2.36,2.36,0,0,0,.28-.12l.1,0,.18-.09c-2.38-.82-4-3.6-4-6.3V13.4A7.07,7.07,0,0,1,59.2,7.17L59.49,7h0a5.89,5.89,0,0,1,1.72-.56,7.25,7.25,0,0,1,1.41-.14H63a7.16,7.16,0,0,1,7.23,7.07V48.78a13.23,13.23,0,0,1-1.09,3.95,14.07,14.07,0,0,1-9.56,7.87l-.22,0-.11,0a14.56,14.56,0,0,0,3.39.33h0A14,14,0,0,0,76.79,47.18V14A14,14,0,0,0,62.64.2Z"/><path class="cls-1" d="M56.49,61.48A14.35,14.35,0,0,1,42,47.31V14.16A14.34,14.34,0,0,1,56.49,0,15.43,15.43,0,0,1,60,.33a.34.34,0,0,1,.26.33A.34.34,0,0,1,60,1l-.12,0A13.83,13.83,0,0,0,49.62,12.08a6.66,6.66,0,0,0-.16,1.46V47.31a13.1,13.1,0,0,0,1.34,5.81,6.86,6.86,0,0,0,5.44,2.74h.17a7.19,7.19,0,0,0,2.34-.4l.15.3-.11-.32.22-.08.27-.11,0,0,0,0,.07,0,.07,0,0,0,.14-.06a6.72,6.72,0,0,0,3.63-5.94V13.54a6.85,6.85,0,0,0-.26-1.86,7,7,0,0,0-3.41-4.22.34.34,0,0,1-.18-.3.32.32,0,0,1,.19-.29,7.75,7.75,0,0,1,1.8-.59,10.13,10.13,0,0,1,1.64-.14h.21a7.49,7.49,0,0,1,7.57,7.4V48.92A13.88,13.88,0,0,1,69.75,53,14.47,14.47,0,0,1,60,61.06l-.13,0-.09,0A15,15,0,0,1,56.49,61.48Zm0-60.81A13.67,13.67,0,0,0,42.67,14.16V47.31a13.67,13.67,0,0,0,13.82,13.5,14.4,14.4,0,0,0,3.11-.35l.2-.05a13.77,13.77,0,0,0,9.34-7.68,13.3,13.3,0,0,0,1.07-3.85V13.54A6.83,6.83,0,0,0,63.3,6.8h-.21a8.79,8.79,0,0,0-1.52.13,6.29,6.29,0,0,0-1,.28,7.68,7.68,0,0,1,3.15,4.28,7.39,7.39,0,0,1,.29,2V49.13a7.4,7.4,0,0,1-4,6.53l-.11.05,0,0-.13.06-.16.08-.3.12-.24.09-.06,0a7.63,7.63,0,0,1-2.55.43h-.18a7.59,7.59,0,0,1-6-3l0-.05a13.82,13.82,0,0,1-1.42-6.13V13.54A7.11,7.11,0,0,1,49,12,14.49,14.49,0,0,1,58.43.75C57.73.68,57.06.67,56.49.67Z"/><path class="cls-1" d="M31.39,60.25H0V53.07L0,53C2.54,45.36,7.9,40.14,13.08,35.1,18.59,29.73,23.8,24.66,23.8,17.57c0-4.15-1.9-9-7.27-9-3.19,0-5.86,1.4-8.48,8.25l-.11.29-7.6-.56L.48,16C3.44,5.59,9,.06,16.53.06c9.18,0,14.88,6.56,14.88,17.13s-7.07,17.67-13.9,24.44c-3.57,3.53-7,6.88-9.21,10.63l23.2.05ZM.84,59.41H30.57l.08-6.27-23.79,0,.35-.62c2.3-4.1,5.9-7.66,9.71-11.44,6.71-6.64,13.65-13.51,13.65-23.84S25.32.89,16.53.89s-13.06,8-15.1,14.89l6,.44c2.36-6,5-8.5,9.15-8.5,5.6,0,8.1,5,8.1,9.85,0,7.44-5.32,12.63-11,18.12C8.57,40.66,3.3,45.79.84,53.21Z"/><path class="cls-1" d="M29.33,18.3c0-4.83-2.41-9.43-7.69-9.43-3.71,0-6.38,2-8.87,8.52L6,16.89C8.68,7.39,13.76,1.2,21.64,1.2c9.64,0,14.46,7.13,14.46,16.72,0,16.33-17,23.5-23.42,34.85l18.39-.05L31,59.83H5.53v-6C10.8,37.84,29.33,32,29.33,18.3Z"/><path class="cls-1" d="M144.66.2h0a14.21,14.21,0,0,0-3.15.35A14.09,14.09,0,0,0,131,11.89a13.6,13.6,0,0,0-.17,2.13V47.18a13.44,13.44,0,0,0,1.39,6A7.25,7.25,0,0,0,138,56.06a8.79,8.79,0,0,0,2.61-.41l.06,0,.22-.09.29-.12.09,0,.18-.09c-2.38-.82-4-3.6-4-6.3V13.4a7.06,7.06,0,0,1,3.81-6.23l.29-.14h0a5.89,5.89,0,0,1,1.72-.56,7.33,7.33,0,0,1,1.41-.14H145a7.16,7.16,0,0,1,7.24,7.07V48.78a13.85,13.85,0,0,1-1.09,3.95,14.08,14.08,0,0,1-9.57,7.87l-.21,0-.11,0a14.42,14.42,0,0,0,3.38.33h0a14,14,0,0,0,14.15-13.83V14A14,14,0,0,0,144.66.2Z"/><path class="cls-1" d="M138.51,61.48A14.34,14.34,0,0,1,124,47.31V14.16A14.33,14.33,0,0,1,138.51,0a15.43,15.43,0,0,1,3.5.33.34.34,0,0,1,.26.33A.34.34,0,0,1,142,1l-.12,0a13.84,13.84,0,0,0-10.25,11.07,6.66,6.66,0,0,0-.16,1.46V47.31a13.1,13.1,0,0,0,1.34,5.81,6.88,6.88,0,0,0,5.45,2.74h.16a7.19,7.19,0,0,0,2.34-.4l.15.3-.11-.32.22-.08.27-.11,0,0,0,0,.07,0,.07,0,0,0,.13-.06a6.73,6.73,0,0,0,3.64-5.94V13.54a6.49,6.49,0,0,0-.27-1.86,7,7,0,0,0-3.41-4.22.33.33,0,0,1,0-.59,7.75,7.75,0,0,1,1.8-.59,10.24,10.24,0,0,1,1.64-.14h.22a7.49,7.49,0,0,1,7.56,7.4V48.92A13.58,13.58,0,0,1,151.77,53,14.45,14.45,0,0,1,142,61.06l-.13,0-.08,0A15.16,15.16,0,0,1,138.51,61.48Zm0-60.81a13.67,13.67,0,0,0-13.82,13.49V47.31a13.67,13.67,0,0,0,13.82,13.5,14.33,14.33,0,0,0,3.11-.35l.2-.05a13.81,13.81,0,0,0,9.35-7.68,13.6,13.6,0,0,0,1.06-3.85V13.54a6.84,6.84,0,0,0-6.9-6.74h-.21a8.82,8.82,0,0,0-1.53.13,6.29,6.29,0,0,0-1,.28,7.63,7.63,0,0,1,3.15,4.28,7.39,7.39,0,0,1,.29,2V49.13a7.4,7.4,0,0,1-4,6.53l-.11.05,0,0-.13.06-.16.08-.3.12-.24.09,0,0a7.73,7.73,0,0,1-2.56.43h-.18a7.56,7.56,0,0,1-6-3l0-.05a13.82,13.82,0,0,1-1.42-6.13V13.54A7.11,7.11,0,0,1,131,12,14.49,14.49,0,0,1,140.45.75C139.75.68,139.08.67,138.51.67Z"/><path class="cls-1" d="M113.41,60.25H82V53.07L82,53c2.52-7.65,7.88-12.87,13.06-17.91,5.52-5.37,10.72-10.44,10.72-17.53,0-4.15-1.9-9-7.27-9-3.19,0-5.86,1.4-8.48,8.25L90,17.1l-7.6-.56.14-.5c3-10.45,8.51-16,16-16,9.18,0,14.88,6.56,14.88,17.13s-7.06,17.67-13.9,24.44c-3.57,3.53-7,6.88-9.21,10.63l23.2.05Zm-30.55-.84h29.73l.08-6.27-23.79,0,.35-.62c2.31-4.1,5.9-7.66,9.71-11.44,6.72-6.64,13.66-13.51,13.66-23.84S107.35.89,98.55.89s-13.06,8-15.1,14.89l6,.44c2.36-6,5-8.5,9.14-8.5,5.6,0,8.11,5,8.11,9.85,0,7.44-5.33,12.63-11,18.12-5.1,5-10.37,10.1-12.83,17.52Z"/><path class="cls-1" d="M111.35,18.3c0-4.83-2.41-9.43-7.69-9.43-3.71,0-6.38,2-8.87,8.52L88,16.89C90.7,7.39,95.78,1.2,103.66,1.2c9.64,0,14.46,7.13,14.46,16.72,0,16.33-17,23.5-23.42,34.85l18.4-.05-.1,7.11H87.55v-6C92.83,37.84,111.35,32,111.35,18.3Z"/></g></g></svg>