<svg xmlns="http://www.w3.org/2000/svg" viewBox="0 0 284.56 110.15"><defs><style>.cls-1{fill:#c62a2a;}</style></defs><title>资源 3</title><g id="图层_2" data-name="图层 2"><g id="图层_4" data-name="图层 4"><path class="cls-1" d="M112.24.35h0a25.68,25.68,0,0,0-5.65.64A25.25,25.25,0,0,0,87.78,21.3a24.24,24.24,0,0,0-.31,3.83v59.4A24.23,24.23,0,0,0,90,95.24a13,13,0,0,0,10.26,5.21,16.36,16.36,0,0,0,4.69-.74l.1,0c.14,0,.27-.1.4-.15l.51-.21.17-.08.32-.16c-4.26-1.48-7.17-6.46-7.17-11.28V24a12.63,12.63,0,0,1,6.83-11.17l.52-.25h0a10.42,10.42,0,0,1,3.08-1,13.23,13.23,0,0,1,2.53-.24h.68a12.81,12.81,0,0,1,13,12.67V87.41a24,24,0,0,1-2,7.06,25.28,25.28,0,0,1-17.14,14.12l-.38.08-.2,0a25.79,25.79,0,0,0,6.07.59h0c14,0,25.35-11.09,25.35-24.78V25.13C137.59,11.45,126.24.35,112.24.35Z"/><path class="cls-1" d="M101.21,110.15c-14.31,0-25.95-11.38-25.95-25.37V25.37C75.26,11.38,86.9,0,101.21,0a27.62,27.62,0,0,1,6.28.59.6.6,0,0,1,0,1.17l-.21.05A24.8,24.8,0,0,0,88.91,21.64a11.88,11.88,0,0,0-.29,2.62V84.78A23.36,23.36,0,0,0,91,95.17a12.36,12.36,0,0,0,9.75,4.93h.31a12.7,12.7,0,0,0,4.18-.71l.28.53-.2-.56.4-.15.48-.2.09,0,.07,0,.12-.05.12-.06.07,0,.24-.11A12,12,0,0,0,113.44,88V24.26a12.07,12.07,0,0,0-.47-3.33,12.5,12.5,0,0,0-6.11-7.56.58.58,0,0,1-.32-.54.6.6,0,0,1,.34-.53,14.11,14.11,0,0,1,3.22-1.05A17.62,17.62,0,0,1,113,11h.39A13.43,13.43,0,0,1,127,24.26V87.65A24.85,24.85,0,0,1,125,95a26,26,0,0,1-17.55,14.45l-.23,0-.15,0A26.42,26.42,0,0,1,101.21,110.15Zm0-108.95C87.56,1.2,76.46,12,76.46,25.37V84.78c0,13.33,11.1,24.18,24.75,24.18a25.78,25.78,0,0,0,5.57-.63l.37-.08a24.74,24.74,0,0,0,16.74-13.78,23.94,23.94,0,0,0,1.91-6.89V24.26a12.24,12.24,0,0,0-12.36-12.07h-.38a16.09,16.09,0,0,0-2.73.23,12.41,12.41,0,0,0-1.85.51,13.67,13.67,0,0,1,5.64,7.66,12.91,12.91,0,0,1,.53,3.66V88a13.22,13.22,0,0,1-7.16,11.7l-.19.09-.05,0L107,100l-.29.13c-.17.08-.35.15-.54.22a4.09,4.09,0,0,1-.42.16l-.1,0a13.93,13.93,0,0,1-4.57.78h-.32A13.56,13.56,0,0,1,90,95.84a.41.41,0,0,1,0-.09,24.67,24.67,0,0,1-2.55-11V24.26a13.11,13.11,0,0,1,.32-2.85,26,26,0,0,1,17-20.07C103.44,1.22,102.23,1.2,101.21,1.2Z"/><path class="cls-1" d="M56.25,108H0V95.09L0,95c4.51-13.7,14.11-23,23.4-32.1,9.87-9.62,19.2-18.7,19.2-31.39,0-7.45-3.41-16.15-13-16.15-5.72,0-10.5,2.51-15.19,14.78l-.2.52-13.62-1,.25-.88C6.16,10,16.1.1,29.62.1,46.06.1,56.28,11.87,56.28,30.8c0,19.13-12.66,31.67-24.91,43.79-6.39,6.33-12.46,12.34-16.5,19l41.56.08ZM1.5,106.45H54.77l.15-11.24-42.63-.08L12.91,94C17,86.67,23.49,80.28,30.32,73.53c12-11.91,24.46-24.22,24.46-42.73,0-18.28-9.41-29.2-25.16-29.2S6.22,15.9,2.56,28.27l10.67.8c4.23-10.81,9-15.23,16.39-15.23,10,0,14.52,8.86,14.52,17.65,0,13.32-9.55,22.62-19.66,32.47-9.13,8.89-18.57,18.09-23,31.37Z"/><path class="cls-1" d="M52.55,32.79c0-8.65-4.32-16.9-13.78-16.9-6.65,0-11.43,3.6-15.89,15.27l-12.14-.9c4.81-17,13.91-28.1,28-28.1,17.28,0,25.91,12.77,25.91,29.94,0,29.27-30.52,42.12-42,62.45l33-.08-.17,12.73H9.9V96.52C19.36,67.81,52.55,57.38,52.55,32.79Z"/><path class="cls-1" d="M259.21.35h0a25.7,25.7,0,0,0-5.66.64A25.25,25.25,0,0,0,234.74,21.3a24.24,24.24,0,0,0-.3,3.83v59.4a24.23,24.23,0,0,0,2.48,10.71,13,13,0,0,0,10.27,5.21,16.42,16.42,0,0,0,4.69-.74l.09,0c.14,0,.28-.1.41-.15l.51-.21.17-.08.32-.16c-4.26-1.48-7.18-6.46-7.18-11.28V24A12.64,12.64,0,0,1,253,12.85l.52-.25h0a10.48,10.48,0,0,1,3.09-1,13.16,13.16,0,0,1,2.53-.24h.68a12.81,12.81,0,0,1,13,12.67V87.41a24,24,0,0,1-1.95,7.06,25.3,25.3,0,0,1-17.15,14.12l-.37.08-.2,0a25.74,25.74,0,0,0,6.07.59h0c14,0,25.35-11.09,25.35-24.78V25.13C284.56,11.45,273.21.35,259.21.35Z"/><path class="cls-1" d="M248.18,110.15c-14.31,0-26-11.38-26-25.37V25.37c0-14,11.64-25.37,26-25.37a27.72,27.72,0,0,1,6.28.59.6.6,0,0,1,.45.58.61.61,0,0,1-.45.59l-.22.05a24.79,24.79,0,0,0-18.36,19.83,11.9,11.9,0,0,0-.3,2.62V84.78A23.49,23.49,0,0,0,238,95.17a12.39,12.39,0,0,0,9.76,4.93h.3a12.72,12.72,0,0,0,4.19-.71l.27.53-.2-.56.4-.15.49-.2.08,0,.08,0,.12-.05.12-.06.06,0,.24-.11A12,12,0,0,0,260.41,88V24.26a11.71,11.71,0,0,0-.48-3.33,12.49,12.49,0,0,0-6.1-7.56.56.56,0,0,1-.32-.54.58.58,0,0,1,.34-.53,14.11,14.11,0,0,1,3.22-1.05A17.49,17.49,0,0,1,260,11h.39A13.43,13.43,0,0,1,274,24.26V87.65A24.84,24.84,0,0,1,272,95a26,26,0,0,1-17.55,14.45l-.23,0-.16,0A26.33,26.33,0,0,1,248.18,110.15Zm0-108.95c-13.65,0-24.76,10.84-24.76,24.17V84.78c0,13.33,11.11,24.18,24.76,24.18a25.85,25.85,0,0,0,5.57-.63l.37-.08a24.76,24.76,0,0,0,16.74-13.78,23.61,23.61,0,0,0,1.9-6.89V24.26a12.24,12.24,0,0,0-12.37-12.07H260a16,16,0,0,0-2.73.23,11.78,11.78,0,0,0-1.85.51,13.72,13.72,0,0,1,5.64,7.66,12.91,12.91,0,0,1,.53,3.66V88a13.24,13.24,0,0,1-7.16,11.7l-.19.09,0,0L254,100l-.29.13-.54.22c-.13.06-.28.11-.42.16l-.1,0a14,14,0,0,1-4.58.78h-.32A13.53,13.53,0,0,1,237,95.84l-.06-.09a24.66,24.66,0,0,1-2.54-11V24.26a13.09,13.09,0,0,1,.31-2.85,26,26,0,0,1,17-20.07C250.41,1.22,249.2,1.2,248.18,1.2Z"/><path class="cls-1" d="M203.21,108H147V95.09l0-.11c4.52-13.7,14.12-23,23.4-32.1,9.88-9.62,19.21-18.7,19.21-31.39,0-7.45-3.41-16.15-13-16.15-5.73,0-10.5,2.51-15.2,14.78l-.2.52-13.61-1,.25-.88C153.13,10,163.07.1,176.59.1c16.44,0,26.65,11.77,26.65,30.7,0,19.13-12.66,31.67-24.9,43.79-6.4,6.33-12.46,12.34-16.51,19l41.57.08Zm-54.75-1.5h53.28l.14-11.24-42.63-.08.63-1.11c4.13-7.35,10.58-13.74,17.41-20.49,12-11.91,24.46-24.22,24.46-42.73,0-18.28-9.41-29.2-25.16-29.2s-23.41,14.3-27.06,26.67l10.67.8c4.22-10.81,9-15.23,16.39-15.23,10,0,14.52,8.86,14.52,17.65,0,13.32-9.55,22.62-19.66,32.47-9.13,8.89-18.57,18.09-23,31.37Z"/><path class="cls-1" d="M199.51,32.79c0-8.65-4.32-16.9-13.77-16.9-6.65,0-11.43,3.6-15.89,15.27l-12.15-.9c4.82-17,13.92-28.1,28-28.1,17.27,0,25.91,12.77,25.91,29.94,0,29.27-30.53,42.12-42,62.45l32.95-.08-.17,12.73h-45.6V96.52C166.32,67.81,199.51,57.38,199.51,32.79Z"/></g></g></svg>